<svg id="Layer_1" data-name="Layer 1" xmlns="http://www.w3.org/2000/svg" viewBox="0 0 1000 347"><path d="M988.4,33c-.2-3.1-1.7-5.1-4.7-5.8-2.1-.5-4.2-1.1-6.4-1.5-30.5-4.8-61.1-9.5-92-11.6-24.6-1.7-49.3-2.8-74-3.9-47.5-2.1-95-1.1-142.2,4.9-28.9,3.7-57.5,8.9-85.2,17.8-14,4.5-27.8,9.8-41.9,14.3-21.9,6.9-44.4,10.1-67.2,5.8a329.4,329.4,0,0,1-40.4-10.8c-24-7.8-48-15.4-72.9-20A760.73,760.73,0,0,0,218.8,9.6c-37.1.1-70.4,1.3-103.6,5.3C88,18.2,60.8,21.8,33.7,25.5c-5.8.8-11.4,2.5-17.1,4-3,.8-5,2.8-5.1,6.2-.5,16-1.1,32.1-1.5,48.1a37.34,37.34,0,0,0,.9,7.3,5.34,5.34,0,0,0,3.4,4.3,30.92,30.92,0,0,1,6,3.1c8.9,6.2,13.2,15.6,16.6,25.4,2.4,7,4,14.2,6,21.4,1.3,4.4,2.9,8.8,3.9,13.3,4.7,20.9,9.1,42,13.9,62.9,4.6,20,10.6,39.5,20.1,57.7,10.7,20.4,25.9,36,47.4,45a178.27,178.27,0,0,0,40.6,11.1c24.9,3.9,50,4.4,75.2,2.6,25.5-1.8,50.6-5.7,75.2-13.1,18.2-5.5,35.4-13.2,50-25.6a229.56,229.56,0,0,0,54-67.5c13.8-25.9,23.4-53.3,32.1-81.2,2.5-8,4.8-16.1,7.7-23.9,4.3-11.6,12.6-18.7,24.9-20.6a53.39,53.39,0,0,1,12-.5c9.3.5,18.2,2.5,24.3,10.2a50.71,50.71,0,0,1,6.9,11,221.93,221.93,0,0,1,9.1,23.4,478.87,478.87,0,0,0,43.6,98.5c15.1,25.9,35.1,46.8,61.6,61.3,18.7,10.2,38.7,16.7,59.6,20.8,31.4,6.1,63,7.6,94.9,6.2,19.3-.8,38.3-3.3,56.8-8.8,19-5.7,35.7-15,48.2-30.8,8.1-10.2,14.1-21.6,19-33.7,10.4-25.3,17.1-51.7,23.1-78.3,3-13,6-26,9.2-39,1.7-6.8,3.7-13.4,5.6-20.1,1.8-6.3,3.2-12.7,7.2-18.1s8.1-10.8,14.8-13.2a7.39,7.39,0,0,0,5-5.8,28.4,28.4,0,0,0,1-6.5c0-9.6,0-19.2-.3-28.8,0-7-.7-13.9-1.1-20.8M413.9,164.9a283.29,283.29,0,0,1-32,79.1c-7.9,13.6-16.9,26.2-28.3,37.1-15.1,14.4-33.2,22.9-53.1,28.1-40.3,10.5-81.1,13.2-122.3,7-8.1-1.2-16-3.3-24-5.3-16.4-4.2-28.8-13.7-38.2-27.8-10.4-15.6-16.9-32.7-21.2-50.7-5.6-23.6-8.8-47.5-11.1-71.6a188.43,188.43,0,0,1,.6-41.8c.9-7,1.4-14.1,3-20.9,5.6-24.3,20.7-39.8,44.8-46.2a383.62,383.62,0,0,1,67.4-11c16.9-1.4,33.8-2.1,44.7-2.7,38.8.5,71.4,3,103.5,10.4,13.1,3,26.4,5.7,38.3,12.1a103.91,103.91,0,0,1,16.8,11.1c8.5,7,12.8,16.5,14.6,27.3,3.7,22.1,1.6,44-3.5,65.8m502.2-10.4c-.8,33.8-6.5,66.9-18.6,98.6-4.9,12.9-11.5,24.7-21.4,34.4C865,298.3,851.2,304,836.5,308c-18.4,5-37.3,6.2-56.3,6.4-28.7.3-56.9-3.3-84.9-9.3-27.8-5.9-49.9-20.4-67.5-42.4-22.6-28.2-37-60.2-45.1-95.3-3.7-16.2-6.9-32.5-6.5-49.2a139.89,139.89,0,0,1,2.2-21.5c3.2-17.7,14.1-29.2,30.4-35.8s33.6-10.7,50.9-14.1A441.41,441.41,0,0,1,718,38.9c15.3-1,30.6-1.4,41-1.9,41.1,2,77,5,111.9,15,6.4,1.8,12.6,4.7,18.6,7.6a27,27,0,0,1,13,12.8,196.24,196.24,0,0,1,8.9,19.2c2.9,7.7,3.6,16,3.9,24.1.4,12.8,1.1,25.8.8,38.8" style="fill:#fff"/></svg>