<svg width="1501" height="371" viewBox="0 0 1501 371" fill="none" xmlns="http://www.w3.org/2000/svg">
<path fill-rule="evenodd" clip-rule="evenodd" d="M873.497 1.12801C872.172 1.83204 868.463 5.83795 865.254 10.0318C862.044 14.2245 859.029 18.1281 858.554 18.7052C858.078 19.2823 856.788 21.1275 855.689 22.8058C854.588 24.484 853.053 26.5462 852.277 27.3892C848.502 31.4884 845.619 35.1339 845.608 35.8237C845.596 36.5654 844.155 38.4156 839.751 43.3454C838.583 44.6528 835.274 48.9714 832.398 52.9413C829.522 56.9123 826.772 60.1547 826.286 60.1473C825.801 60.1399 825.392 60.8331 825.379 61.6876C825.366 62.5422 824.886 63.2342 824.312 63.2255C823.738 63.2167 823.258 63.8818 823.246 64.7043C823.233 65.5267 822.168 66.9092 820.878 67.7764C819.589 68.6436 818.881 69.3591 819.304 69.3656C819.728 69.372 816.261 72.9786 811.602 77.3814C806.943 81.7831 803.431 85.6926 803.799 86.0691C804.167 86.4446 803.865 86.7435 803.129 86.7323C801.911 86.7138 799.419 88.8184 790.706 97.2239C789.073 98.7997 786.783 101.003 785.618 102.119C784.453 103.237 779.749 107.45 775.166 111.483C761.412 123.584 755.453 129.324 755.435 130.489C755.426 131.096 754.983 131.47 754.451 131.319C753.918 131.169 751.303 133.25 748.639 135.945C745.974 138.64 743.8 140.498 743.806 140.072C743.813 139.647 742.252 140.882 740.34 142.816C738.426 144.751 732.945 149.939 728.159 154.346C723.373 158.753 719.454 162.621 719.449 162.942C719.43 164.163 696.118 185.468 694.162 186.052C693.033 186.389 690.402 188.483 688.315 190.707C686.229 192.929 684.23 194.744 683.875 194.739C683.519 194.733 681.468 196.451 679.317 198.555C677.165 200.659 673.052 204.408 670.178 206.887C660.858 214.922 643.017 230.794 638.834 234.771C636.592 236.903 634.298 238.356 633.737 238C632.09 236.954 632.585 235.59 634.857 234.911C636.019 234.566 636.73 233.885 636.439 233.4C636.146 232.915 637.107 231.148 638.571 229.472C640.036 227.797 641.244 225.735 641.257 224.89C641.27 224.045 641.947 222.821 642.763 222.169C644.437 220.833 648.541 213.06 652.031 204.614C655.154 197.057 655.586 187.009 652.916 183.989C651.853 182.788 650.353 181.795 649.58 181.784C648.808 181.772 648.184 181.268 648.193 180.665C648.202 180.062 647.791 179.817 647.278 180.121C646.288 180.707 640.627 179.096 637.462 177.328C636.149 176.595 635.102 176.644 634.043 177.49C632.788 178.492 632.648 178.383 633.257 176.878C633.891 175.309 633.523 175.108 630.693 175.476C628.875 175.713 627.394 175.471 627.402 174.939C627.41 174.407 626.708 174.229 625.842 174.545C624.839 174.91 624.277 174.503 624.293 173.423C624.332 170.884 622.998 172.658 622.818 175.385C622.728 176.742 621.995 177.737 621.096 177.724C620.091 177.708 619.655 176.9 619.876 175.465C620.258 172.988 614.571 167.782 611.432 167.734C610.448 167.719 609.94 167.245 610.303 166.68C610.667 166.116 610.758 165.651 610.508 165.648C609.189 165.627 602.491 168.753 601.906 169.662C601.531 170.244 600.762 170.427 600.197 170.068C599.631 169.71 598.367 170.072 597.386 170.874C596.405 171.674 593.473 173.35 590.87 174.597C588.268 175.845 585.186 177.677 584.023 178.668C582.86 179.661 579.539 181.761 576.645 183.338C573.75 184.913 569.132 187.703 566.383 189.537C563.633 191.372 560.96 192.867 560.442 192.859C559.923 192.851 559.238 193.49 558.919 194.28C558.6 195.069 556.182 196.743 553.547 198C550.91 199.257 547.709 201.355 546.432 202.664C545.156 203.972 543.705 205.037 543.207 205.029C542.331 205.016 536.073 208.95 535.002 210.189C534.71 210.526 532.338 212.066 529.73 213.612C527.123 215.156 523.089 217.857 520.766 219.613C518.443 221.369 514.767 223.689 512.597 224.768C510.428 225.848 508.648 227.048 508.642 227.437C508.636 227.824 506.499 229.434 503.892 231.014C501.285 232.593 499.147 234.235 499.139 234.663C499.131 235.09 498.416 235.429 497.549 235.415C496.683 235.402 495.155 236.311 494.155 237.436C493.154 238.56 491.737 239.471 491.003 239.46C490.269 239.449 489.661 239.984 489.651 240.649C489.641 241.312 489.383 241.601 489.076 241.288C488.563 240.763 484.74 243.52 479.992 247.84C478.913 248.82 478.035 249.357 478.04 249.032C478.045 248.705 477.3 249.16 476.385 250.043C475.468 250.924 474.099 251.635 473.341 251.624C472.582 251.612 471.704 252.239 471.389 253.018C471.074 253.796 469.399 254.9 467.666 255.47C465.169 256.292 464.403 256.2 463.969 255.025C463.668 254.212 463.76 253.549 464.172 253.554C464.585 253.559 466.289 251.487 467.959 248.95C469.63 246.412 471.391 244.342 471.873 244.349C472.356 244.356 473.079 243.389 473.479 242.199C474.234 239.956 474.711 239.363 482.238 231.294C490.418 222.526 491.492 221.228 493.441 217.758C494.976 215.022 495.096 214.152 494.028 213.474C493.174 212.933 492.42 213.264 491.951 214.388C491.546 215.358 491.187 215.73 491.154 215.213C491.123 214.697 490.263 214.962 489.246 215.804C487.01 217.651 484.761 218.924 484.77 218.338C484.774 218.103 485.869 216.776 487.204 215.389C488.539 214.003 490.696 211.566 491.998 209.972C493.3 208.38 494.657 207.374 495.013 207.738C495.367 208.102 495.023 209.136 494.247 210.036C493.1 211.365 493.085 211.831 494.167 212.518C495.669 213.47 501.584 211.023 501.608 209.439C501.617 208.878 502.051 208.688 502.574 209.021C503.096 209.352 503.855 208.226 504.26 206.517C504.666 204.809 505.61 203.42 506.359 203.432C508.189 203.46 509.267 199.261 507.87 197.539C507.028 196.499 506.397 196.444 505.307 197.313C502.223 199.777 504.092 196.213 508.392 191.435C513.818 185.405 514.913 184.596 515.411 186.249C516.393 189.509 517.816 190.229 519.823 188.479C520.904 187.538 521.793 186.378 521.8 185.9C521.808 185.423 524.614 182.293 528.038 178.945C531.462 175.598 534.05 172.641 533.789 172.375C533.529 172.108 534.539 171.121 536.033 170.182C537.528 169.241 538.55 168.139 538.305 167.733C538.06 167.326 539.254 166.204 540.956 165.241C542.659 164.277 544.356 162.356 544.729 160.972C545.104 159.577 545.89 158.761 546.49 159.141C547.085 159.52 547.314 159.397 546.996 158.87C546.679 158.343 547.083 156.762 547.895 155.356C548.708 153.951 549.382 153.176 549.396 153.633C549.437 155.048 554.722 149.04 554.745 147.552C554.757 146.78 555.499 146.161 556.393 146.174C557.288 146.188 557.769 145.782 557.462 145.271C556.769 144.12 559.465 141.839 560.394 142.79C560.766 143.171 561.081 142.789 561.094 141.943C561.106 141.097 562.189 139.448 563.498 138.281C568.328 133.977 571.153 130.535 571.193 128.906C571.216 127.986 571.79 127.348 572.47 127.489C573.149 127.63 574.558 125.903 575.599 123.652C576.642 121.401 577.873 119.564 578.337 119.571C578.801 119.578 579.19 118.924 579.202 118.116C579.215 117.309 579.624 116.5 580.112 116.317C581.013 115.98 583.009 112.719 586.291 106.223C587.292 104.244 588.311 99.5049 588.555 95.6918C588.956 89.4504 588.728 88.414 586.257 85.2961C584.747 83.3916 583.35 81.6111 583.15 81.3397C582.951 81.0684 582.385 81.4711 581.893 82.2344C581.204 83.3045 580.849 83.1282 580.345 81.4659C579.898 79.991 578.644 79.1917 576.378 78.9376C574.079 78.6798 572.677 77.7674 571.793 75.9564C571.092 74.5211 570.503 73.9568 570.483 74.7025C570.463 75.4481 569.974 75.7577 569.396 75.3915C568.818 75.0242 568.633 74.2765 568.986 73.7286C569.373 73.1273 568.599 72.9726 567.036 73.3362C565.557 73.6805 564.141 73.4362 563.737 72.767C563.349 72.1218 562.167 71.852 561.111 72.1675C560.055 72.4829 558.89 72.2435 558.525 71.6349C558.159 71.0274 557.411 70.7964 556.862 71.1216C556.313 71.4469 556.164 72.2113 556.532 72.8219C556.912 73.4535 556.591 73.719 555.785 73.4394C555.007 73.1686 554.137 72.0385 553.851 70.9276C553.564 69.8177 552.509 68.8454 551.506 68.7679C547.932 68.4907 547.598 68.3168 547.622 66.7361C547.636 65.8567 547.059 65.2284 546.339 65.3386C545.62 65.4499 542.923 65.1685 540.346 64.7137C534.919 63.7567 522.358 67.1273 515.202 71.461C512.9 72.8547 510.538 73.9873 509.952 73.9784C509.367 73.9695 508.881 74.4283 508.872 74.998C508.863 75.5678 508.146 76.023 507.276 76.0098C505.543 75.9834 501.881 77.7884 499.631 79.7786C498.839 80.4783 497.594 81.0426 496.863 81.0315C496.131 81.0204 494.68 81.9193 493.637 83.0276C492.594 84.1369 490.768 85.3357 489.578 85.6906C486.802 86.5186 476.878 92.3051 476.406 93.3713C476.207 93.8179 475.38 94.1731 474.567 94.1608C473.754 94.1484 473.081 94.6044 473.072 95.1741C473.064 95.7438 472.117 96.1956 470.969 96.1781C469.821 96.1606 468.875 96.6238 468.866 97.208C468.857 97.7912 467.786 98.6607 466.488 99.1403C465.189 99.6189 462.326 101.196 460.125 102.644C457.924 104.092 455.882 105.273 455.587 105.268C454.814 105.257 446.268 111.713 445.84 112.631C445.641 113.056 444.853 113.393 444.088 113.382C443.323 113.37 442.535 113.716 442.336 114.15C441.695 115.557 432.286 122.527 431.054 122.508C430.395 122.498 429.85 122.956 429.841 123.525C429.832 124.095 429.287 124.553 428.628 124.543C427.461 124.525 419.3 130.476 416.116 133.668C415.241 134.543 413.104 136.116 411.365 137.161C409.627 138.207 407.819 139.683 407.348 140.441C406.878 141.199 405.822 141.809 405.003 141.796C404.184 141.784 402.727 142.927 401.765 144.337C400.803 145.747 399.425 146.892 398.702 146.881C397.98 146.87 394.576 149.265 391.137 152.205C387.699 155.144 382.355 159.608 379.262 162.125C376.169 164.643 372.618 167.555 371.37 168.597C370.122 169.639 366.981 172.155 364.391 174.189C361.799 176.222 358.915 178.574 357.98 179.414C355.841 181.338 342.493 192.771 338.967 195.7C328.413 204.467 321.158 211.453 321.69 212.337C322.051 212.936 321.795 213.049 321.091 212.603C320.353 212.134 318.003 213.583 315.195 216.238C308.115 222.932 305.245 225.425 297.183 231.881C293.114 235.14 285.62 241.439 280.528 245.878C275.437 250.318 271.278 253.508 271.286 252.965C271.318 250.849 283.758 231.875 289.608 225.019C291.278 223.062 292.652 220.869 292.663 220.144C292.674 219.419 293.231 218.835 293.901 218.845C294.57 218.855 294.838 218.576 294.495 218.226C294.152 217.875 294.797 216.631 295.929 215.462C297.061 214.293 297.997 212.647 298.01 211.805C298.023 210.963 298.302 210.549 298.631 210.885C299.277 211.547 307.531 203.522 307.551 202.214C307.557 201.779 308.8 200.085 310.314 198.449C311.827 196.815 313.056 195.09 313.045 194.615C313.033 194.14 313.939 193.432 315.06 193.04C316.18 192.648 317.107 191.613 317.12 190.74C317.134 189.868 317.614 189.16 318.188 189.169C318.762 189.178 319.243 188.442 319.257 187.534C319.271 186.626 320.263 185.645 321.463 185.353C322.965 184.988 323.494 184.221 323.163 182.885C322.867 181.688 323.234 180.957 324.123 180.971C324.914 180.983 327.848 178.204 330.644 174.796C333.439 171.387 337.993 166.216 340.765 163.305C343.536 160.392 345.811 157.5 345.821 156.876C345.83 156.253 347.148 154.593 348.748 153.188C352.119 150.227 356.434 145.434 356.446 144.637C356.451 144.336 358.601 141.933 361.225 139.297C363.849 136.66 366 134.176 366.007 133.774C366.013 133.373 368.152 130.833 370.761 128.13C373.369 125.427 375.525 122.672 375.551 122.007C375.577 121.344 375.957 120.65 376.394 120.466C377.754 119.897 384.088 111.716 384.107 110.506C384.116 109.876 384.857 109.371 385.751 109.385C386.646 109.399 387.116 108.973 386.794 108.439C386.473 107.906 387.161 107.185 388.323 106.839C389.484 106.492 390.462 105.424 390.496 104.467C390.571 102.28 393.131 98.9389 394.028 99.8571C394.396 100.234 394.708 99.8146 394.722 98.9269C394.735 98.0381 395.486 97.0425 396.387 96.7144C397.29 96.3862 397.766 95.6817 397.446 95.1484C397.125 94.6151 398.039 93.2894 399.477 92.2017C400.914 91.114 401.798 89.9245 401.44 89.5585C401.082 89.1925 401.338 88.9012 402.007 88.9114C402.677 88.9216 403.114 88.4734 402.98 87.9149C402.844 87.3565 404.066 85.8604 405.695 84.5891C408.251 82.5942 409.168 80.8925 409.584 77.371C409.635 76.9439 410.435 76.6069 411.364 76.6211C412.537 76.639 412.894 76.0134 412.536 74.5668C412.207 73.2315 412.536 72.4947 413.457 72.5087C414.263 72.521 414.654 71.8867 414.349 71.0615C414.029 70.1925 414.649 69.342 415.871 68.9773C417.187 68.585 418.201 67.0567 418.673 64.7534C419.079 62.7693 419.832 61.4122 420.346 61.7371C421.713 62.6054 423.759 54.5563 422.992 51.3183C422.631 49.7929 421.465 48.3039 420.403 48.0111C419.339 47.7172 418.477 47.039 418.485 46.5014C418.493 45.9648 419.082 45.8702 419.793 46.2902C420.544 46.7348 420.728 46.6547 420.23 46.099C419.76 45.5738 417.653 45.1169 415.548 45.0849C412.703 45.0415 411.759 44.6065 411.863 43.3866C411.963 42.2339 411.32 41.8657 409.698 42.1487C408.414 42.3716 406.623 41.763 405.657 40.7744C404.454 39.5439 403.074 39.1976 401.152 39.6459C398.708 40.2148 398.546 40.0994 399.781 38.6687C400.55 37.776 400.883 36.7419 400.52 36.3696C400.156 35.9983 399.835 36.354 399.803 37.1606C399.763 38.2385 399.375 38.1249 398.344 36.7312C397.291 35.3082 396.736 35.1526 396.119 36.1109C395.523 37.0353 395.089 36.8318 394.538 35.3719C393.821 33.4702 393.772 33.4808 393.671 35.5597C393.548 38.0962 390.39 41.2931 390.4 38.8709C390.405 37.7458 390.167 37.7701 389.264 38.9862C388.341 40.2289 388.224 40.0914 388.653 38.2672C388.97 36.9189 388.604 35.7799 387.742 35.4363C386.949 35.1206 386.283 33.5647 386.262 31.9792C386.242 30.3947 385.995 29.6274 385.716 30.2748C384.998 31.9423 381.145 30.6548 381.174 28.7572C381.22 25.7492 366.881 28.3323 362.071 32.1981C361.054 33.0156 360.226 33.346 360.233 32.9327C360.239 32.5184 359.495 32.9007 358.58 33.783C357.663 34.6642 356.066 35.3724 355.029 35.3566C353.993 35.3408 352.549 36.0181 351.822 36.8618C351.094 37.7055 349.851 38.3859 349.061 38.3739C348.27 38.3618 347.616 38.8388 347.607 39.4334C347.598 40.0279 347.006 40.3909 346.29 40.239C344.429 39.8439 338.154 43.2171 338.133 44.6227C338.123 45.2732 337.825 45.508 337.47 45.1462C336.833 44.4931 330.751 47.0507 329.724 48.4027C329.431 48.7888 327.179 50.1739 324.719 51.4813C322.259 52.7876 320.24 54.2373 320.233 54.7024C320.226 55.1675 319.626 55.5386 318.902 55.5276C317.731 55.5098 306.841 62.0006 305.484 63.5247C304.615 64.5019 298.23 68.6816 297.621 68.6723C296.447 68.6544 286.504 75.9937 286.49 76.8887C286.483 77.4045 285.966 77.8194 285.342 77.8098C284.207 77.7926 275.309 83.4372 273.312 85.4406C272.728 86.0254 268.053 89.2178 262.922 92.5338C257.791 95.8498 252.093 99.8648 250.26 101.455C248.426 103.046 245.27 105.167 243.245 106.169C241.22 107.172 238.406 109.186 236.993 110.645C234.199 113.525 232.121 114.14 233.065 111.808C233.651 110.356 231.107 108.545 229.109 108.994C228.533 109.123 228.433 108.87 228.887 108.434C230.102 107.263 232.792 107.09 232.775 108.182C232.751 109.793 235.479 109.264 237.324 107.302C239.502 104.986 239.562 104.05 237.536 104.019C236.675 104.006 235.976 103.607 235.984 103.133C235.991 102.657 237.406 102.29 239.128 102.317C240.85 102.343 242.533 102.101 242.868 101.778C244.935 99.7879 243.348 93.0438 241.123 94.363C240.421 94.7781 240.262 94.582 240.723 93.8679C241.824 92.1575 244.497 92.4531 244.47 94.2824C244.427 97.0853 246.204 95.952 251.212 89.9818C253.926 86.7471 257.094 83.0251 258.251 81.7125C259.409 80.3998 260.363 78.8208 260.373 78.2045C260.382 77.5882 260.67 77.3719 261.014 77.7232C261.634 78.3584 268.868 68.7368 268.891 67.2463C268.897 66.8164 270.096 65.2257 271.554 63.7114C273.013 62.1961 274.215 60.3381 274.227 59.583C274.238 58.8279 274.961 57.6402 275.833 56.9437C276.704 56.2473 277.438 54.3646 277.462 52.759C277.487 51.1525 277.981 49.5582 278.56 49.2148C279.968 48.3805 280.011 41.77 278.616 40.8836C278.008 40.4983 277.753 39.5837 278.049 38.8516C278.777 37.0495 274.748 33.3443 271.335 32.6779C267.691 31.9677 264.237 30.0242 264.257 28.6963C264.266 28.1132 263.895 27.8599 263.433 28.1336C262.97 28.4073 261.942 28.2186 261.147 27.7144C260.313 27.1858 258.896 27.2087 257.803 27.7681C256.357 28.5086 255.911 28.361 255.929 27.149C255.944 26.2168 255.033 25.545 253.729 25.5252C252.504 25.5065 249.858 24.4467 247.847 23.1707C243.575 20.4606 237.601 20.3406 232.617 22.8662C230.819 23.7765 228.501 24.6509 227.463 24.8102C226.426 24.9695 219.094 28.342 211.169 32.3034C203.245 36.2659 194.986 40.3838 192.816 41.4552C190.647 42.5266 188.866 43.7687 188.86 44.2151C188.853 44.6626 187.199 45.3087 185.184 45.6521C183.169 45.9954 181.511 46.6053 181.498 47.006C181.485 47.4078 179.47 48.6308 177.02 49.7248C174.569 50.8189 172.326 51.9969 172.034 52.3437C171.397 53.0986 164.125 57.1124 156.506 60.9137C153.469 62.4299 150.978 64.003 150.972 64.4101C150.966 64.8182 149.426 65.7272 147.548 66.4311C145.671 67.136 143.266 68.438 142.203 69.3253C141.14 70.2125 137.583 72.3859 134.301 74.1552C125.612 78.8375 119.424 82.27 114.643 85.0567C112.326 86.4077 107.828 88.6962 104.648 90.1428C101.469 91.5894 98.4813 93.4244 98.0099 94.2191C97.5385 95.0138 96.4274 95.6538 95.5403 95.6403C94.1512 95.6191 89.7589 98.1289 86.2155 100.968C85.6342 101.433 78.9971 105.41 71.4663 109.806C63.9355 114.203 56.3214 118.723 54.5463 119.851C52.7712 120.981 51.0295 121.9 50.6757 121.895C49.3054 121.874 37.2438 129.235 37.2307 130.1C37.223 130.603 36.2775 131 35.1294 130.982C33.9814 130.965 33.035 131.417 33.0263 131.986C33.0177 132.556 32.4908 133.014 31.8563 133.005C31.2217 132.995 28.9013 134.358 26.7013 136.034C24.5014 137.71 22.4523 139.078 22.1496 139.073C21.4743 139.063 8.09238 147.855 4.204 150.864C1.09624 153.269 0.330616 157.829 2.86657 158.84C3.76723 159.198 4.40328 160.757 4.37619 162.539C4.35045 164.231 4.80188 165.918 5.37986 166.284C5.95782 166.651 6.1812 167.338 5.87542 167.813C5.56966 168.287 5.56916 169.35 5.87396 170.176C6.78733 172.65 12.4343 172.136 18.2071 169.052C21.1919 167.457 25.763 165.13 28.3657 163.881C30.9684 162.633 36.4146 159.742 40.4683 157.458C44.5221 155.175 55.4161 149.288 64.6772 144.377C73.9383 139.466 81.6778 135.071 81.8759 134.61C82.075 134.149 82.6203 133.778 83.0889 133.785C83.5575 133.792 86.4076 132.204 89.4238 130.255C92.4401 128.307 95.5406 126.722 96.316 126.734C97.0904 126.746 98.1085 126.179 98.5786 125.473C99.5187 124.063 105.836 120.663 107.47 120.688C108.036 120.696 110.055 119.561 111.959 118.166C113.862 116.77 115.868 115.635 116.417 115.643C118.057 115.668 123.071 113.216 123.092 112.378C123.103 111.95 123.655 111.609 124.319 111.62C126.375 111.651 150.744 99.5323 154.86 96.4308C157.005 94.8162 159.49 93.5061 160.385 93.5197C161.28 93.5334 162.02 93.0007 162.03 92.3357C162.04 91.6717 162.343 91.4277 162.701 91.7958C163.315 92.4236 184.519 82.2958 186.692 80.3376C187.245 79.8384 188.244 79.4391 188.911 79.4493C189.576 79.4594 193.553 77.6634 197.746 75.4583C201.94 73.2521 206.967 71.0369 208.917 70.5341C212.334 69.6537 212.419 69.7016 211.244 71.846C210.573 73.0707 209.382 74.4357 208.597 74.8796C207.813 75.3236 207.163 76.2513 207.152 76.9422C207.142 77.6331 205.946 79.0561 204.495 80.1042C203.043 81.1513 201.847 82.6115 201.835 83.348C201.824 84.0845 200.871 84.9682 199.718 85.3123C198.564 85.6563 197.608 86.2561 197.593 86.6444C197.579 87.0337 195.425 89.6471 192.807 92.4522C190.19 95.2584 188.039 98.167 188.028 98.9159C188.017 99.6659 187.594 100.017 187.088 99.6963C186.261 99.1708 180.624 105.273 180.602 106.716C180.597 107.044 175.827 111.804 170.002 117.296C164.177 122.787 159.399 128.073 159.384 129.041C159.37 130.01 158.717 130.793 157.934 130.781C157.15 130.769 153.698 133.831 150.262 137.586C146.826 141.34 141.272 147.153 137.919 150.502C134.566 153.852 131.818 156.973 131.811 157.438C131.804 157.903 130.764 158.813 129.499 159.46C127.162 160.656 122.182 165.497 111.682 176.779C108.472 180.228 104.057 184.837 101.871 187.022C99.6847 189.207 97.8807 191.343 97.8638 191.771C97.8458 192.197 94.4549 195.992 90.329 200.203C86.2021 204.414 80.408 210.62 77.4525 213.994C74.4981 217.368 71.3192 220.816 70.3898 221.658C68.112 223.717 59.666 233.652 59.6564 234.283C59.6522 234.558 58.097 236.403 56.2014 238.382C54.3059 240.36 52.275 242.586 51.6895 243.329C51.1041 244.073 47.777 248.131 44.2962 252.348C37.6865 260.354 31.0205 268.499 29.6431 270.249C29.2002 270.813 26.74 273.819 24.1768 276.93C16.8608 285.809 0.0320745 310.924 0.000353262 313.01C-0.0154129 314.047 0.498549 315.946 1.14191 317.23C1.78631 318.514 2.63235 320.268 3.02325 321.129C3.41416 321.99 4.38769 322.704 5.1861 322.716C6.20889 322.732 6.64392 324.192 6.65696 327.66C6.668 330.366 6.28157 332.575 5.79939 332.568C3.99489 332.541 4.98645 334.336 7.40457 335.475C9.81235 336.608 10.2408 338.158 8.77009 340.413C8.39173 340.992 8.95659 342.633 10.0258 344.058C11.095 345.484 11.9896 346.039 12.0134 345.293C12.0373 344.548 12.5409 344.245 13.1333 344.62C13.7247 344.996 13.9101 346.192 13.5439 347.278C13.1722 348.382 13.3707 349.26 13.9938 349.27C14.6064 349.279 15.1138 348.938 15.1223 348.51C15.1309 348.082 16.9839 347.74 19.2396 347.748C21.4964 347.756 23.0811 348.168 22.7614 348.664C20.9802 351.43 29.6415 345.394 36.945 338.78C41.6098 334.556 45.7637 331.105 46.1749 331.111C47.2875 331.128 54.9004 325.181 60.808 319.678C63.6681 317.015 66.431 314.842 66.9497 314.85C67.4673 314.858 68.173 314.17 68.5158 313.32C68.8597 312.471 69.795 311.785 70.5944 311.798C71.3939 311.81 72.0539 311.448 72.0608 310.993C72.0677 310.539 73.727 308.582 75.7472 306.646C77.7684 304.709 79.4455 302.544 79.4741 301.831C79.5037 301.12 80.2588 300.548 81.1532 300.562C82.0487 300.575 84.7815 298.457 87.2273 295.853C89.6741 293.251 94.1924 289.324 97.2698 287.128C100.347 284.932 103.342 281.945 103.924 280.49C104.507 279.035 105.252 278.118 105.579 278.452C105.906 278.787 108.862 276.568 112.149 273.521C115.435 270.476 118.477 267.986 118.908 267.989C119.339 267.992 119.701 267.296 119.714 266.441C119.727 265.586 120.263 264.895 120.905 264.905C121.546 264.915 123.865 263.202 126.058 261.098C128.252 258.995 132.769 254.984 136.098 252.186C139.427 249.387 142.935 246.227 143.896 245.163C144.857 244.099 146.528 242.493 147.609 241.593C149.617 239.921 156.487 233.793 164 226.968C166.314 224.867 168.469 223.151 168.79 223.156C169.11 223.161 171.907 220.894 175.005 218.119C178.103 215.343 182.515 211.856 184.811 210.37C187.106 208.884 192.315 204.852 196.387 201.409C200.458 197.966 205.452 193.951 207.483 192.486C209.515 191.021 212.13 188.96 213.294 187.905C214.459 186.849 217.311 184.643 219.633 183.002C221.954 181.36 224.991 178.973 226.38 177.697C227.77 176.421 229.463 175.385 230.142 175.395C230.823 175.406 233.532 173.465 236.163 171.084C238.795 168.702 242.017 166.07 243.322 165.235C244.628 164.4 246.722 162.868 247.976 161.829C249.23 160.791 252.274 158.6 254.738 156.961C257.204 155.322 259.226 153.617 259.233 153.17C259.24 152.724 260.547 151.718 262.138 150.933C263.728 150.149 267.709 147.683 270.983 145.453C274.259 143.224 279.667 139.576 283.004 137.348C286.341 135.119 290.391 132.151 292.002 130.751C293.614 129.351 296.514 127.153 298.447 125.867C304.226 122.023 313.177 116.568 313.692 116.576C314.544 116.589 307.346 126.197 303.471 130.221C301.404 132.367 297.63 136.272 295.084 138.9C290.437 143.694 284.417 150.957 278.457 158.961C276.699 161.323 274.654 163.917 273.913 164.726C271.575 167.283 268.825 170.579 266.69 173.382C260.05 182.103 255.291 188.014 253.042 190.337C249.79 193.693 238.968 209.009 236.233 214.124C235.087 216.268 233.422 218.806 232.533 219.766C229.896 222.611 226.318 227.942 218.03 241.373C213.724 248.349 209.163 255.739 207.894 257.795C206.626 259.85 204.325 263.844 202.782 266.67C199.135 273.345 196.272 278.138 194.967 279.75C194.392 280.459 192.524 283.583 190.817 286.691C189.109 289.799 187.42 292.571 187.062 292.85C185.665 293.942 174.282 317.194 173.594 320.36C173.193 322.206 172.454 323.71 171.952 323.702C170.836 323.685 171.178 326.03 172.428 326.96C172.927 327.332 172.972 328.199 172.529 328.886C171.91 329.847 171.522 329.808 170.848 328.717C170.212 327.687 169.958 327.954 169.92 329.69C169.891 331.005 170.284 331.835 170.793 331.533C171.72 330.983 172.945 335.644 172.887 339.497C172.87 340.626 174.053 342.514 175.517 343.692C177.045 344.924 177.977 346.559 177.704 347.532C177.444 348.465 177.854 349.824 178.618 350.554C180.201 352.067 180.444 354.913 178.989 354.891C178.455 354.883 177.83 353.824 177.601 352.539L177.184 350.201L177.005 352.603C176.907 353.925 177.56 355.757 178.457 356.674C179.387 357.626 179.871 359.384 179.584 360.762C179.307 362.093 179.47 363.187 179.945 363.194C180.422 363.202 180.55 363.855 180.229 364.648C179.369 366.777 181.949 367.969 183.112 365.978C183.653 365.051 184.571 364.301 185.15 364.31C185.729 364.318 185.912 364.778 185.556 365.33C185.2 365.883 185.37 367.221 185.932 368.304C186.764 369.906 187.952 370.235 192.298 370.068C195.237 369.956 197.922 369.594 198.265 369.264C198.608 368.933 199.7 368.675 200.691 368.691C201.681 368.706 202.785 367.993 203.143 367.107C203.501 366.222 204.676 365.656 205.754 365.852C206.977 366.074 212.163 362.769 219.544 357.063C226.051 352.034 232.883 346.869 234.725 345.587C240.32 341.691 248.313 335.115 254.696 329.154C258.025 326.045 261.354 323.359 262.094 323.187C263.62 322.831 268.698 318.553 271.669 315.119C272.763 313.854 274.023 312.824 274.469 312.831C275.534 312.847 283.903 305.783 292.253 297.82C295.928 294.315 299.116 291.449 299.337 291.452C299.558 291.456 302.521 288.947 305.922 285.877C309.322 282.807 312.429 280.29 312.823 280.284C313.218 280.277 317.264 276.79 321.814 272.536C335.678 259.573 342.529 253.416 346.985 249.918C357.986 241.28 359.855 239.736 364.807 235.207C367.717 232.545 370.445 230.371 370.869 230.378C371.294 230.384 375.164 227.063 379.47 222.997C386.275 216.572 395.146 209.016 401.88 203.912C402.985 203.075 405.984 200.556 408.545 198.316C413.154 194.281 418.148 190.078 426.322 183.348C428.647 181.434 433.52 177.7 437.148 175.052C440.777 172.406 443.752 169.8 443.76 169.264C443.768 168.728 444.494 168.299 445.373 168.313C446.253 168.326 447.248 167.651 447.588 166.813C447.926 165.975 449.697 164.401 451.522 163.316C453.348 162.23 455.794 160.509 456.959 159.492C461.787 155.273 477.142 144.967 478.568 144.989C479.147 144.998 479.629 144.57 479.637 144.038C479.645 143.507 480.685 142.765 481.95 142.387C483.214 142.01 486.473 140.047 489.192 138.025C494.914 133.77 499.338 131.232 505.972 128.402C508.573 127.293 511.331 125.795 512.099 125.075C516.751 120.718 514.364 127.875 509.447 133.026C508.107 134.431 505.429 137.711 503.494 140.318C499.285 145.989 490.379 156.839 486.689 160.789C485.23 162.352 482.602 165.297 480.848 167.333C479.095 169.37 476.579 172.225 475.257 173.677C473.934 175.13 470.827 178.649 468.352 181.497C464.452 185.986 461.012 189.661 454.301 196.509C453.429 197.399 452.711 198.488 452.704 198.929C452.698 199.37 451.765 200.717 450.631 201.919C449.496 203.122 446.59 206.407 444.173 209.219C441.755 212.031 438.621 215.555 437.209 217.049C435.796 218.543 434.633 220.275 434.624 220.895C434.614 221.516 434.209 222.018 433.723 222.011C432.994 221.999 426.907 229.422 418.198 240.941C417.346 242.068 414.732 245.525 412.389 248.623C398.497 266.995 386.011 287.592 388.744 287.634C389.845 287.65 388.699 294.203 387.516 294.658C387.091 294.821 386.987 295.942 387.286 297.147C387.69 298.785 387.48 299.12 386.456 298.469C385.398 297.798 385.291 298.058 385.987 299.595C386.485 300.694 386.746 304.227 386.57 307.447C386.272 312.874 386.404 313.263 388.378 312.784C390.332 312.308 390.471 312.668 390.061 317.163C389.81 319.918 390.123 322.585 390.775 323.262C391.414 323.922 391.812 325.859 391.66 327.566C391.316 331.43 393.007 335.771 395.471 337.35C397.661 338.754 397.981 337.488 396.267 334.192C395.549 332.81 395.522 331.71 396.189 331.068C396.858 330.424 397.713 331.662 398.619 334.583C399.39 337.062 400.582 338.985 401.27 338.857C401.957 338.728 405.233 338.482 408.548 338.309C411.863 338.135 415.52 337.606 416.676 337.131C421.091 335.318 433.678 328.233 437.359 325.49C439.475 323.913 441.541 322.628 441.95 322.634C442.359 322.64 444.494 321.274 446.694 319.598C448.894 317.922 450.953 316.555 451.271 316.56C452.034 316.571 473.051 303.13 480.429 297.912C483.621 295.656 486.602 293.808 487.053 293.807C487.505 293.806 488.217 293.344 488.635 292.779C489.053 292.216 490.689 291.117 492.27 290.338C493.851 289.56 496.085 288.079 497.235 287.048C498.385 286.017 499.815 285.181 500.413 285.19C501.011 285.199 501.507 284.741 501.516 284.171C501.524 283.601 502.016 283.142 502.609 283.151C503.866 283.171 518.743 273.224 522.613 269.777C524.068 268.481 526.558 266.871 528.148 266.2C529.737 265.529 531.044 264.503 531.053 263.921C531.062 263.34 531.538 262.871 532.111 262.88C532.683 262.888 535.465 261.299 538.291 259.347C541.119 257.396 543.962 255.808 544.611 255.817C545.26 255.827 545.798 255.373 545.807 254.809C545.815 254.243 548.309 252.376 551.35 250.658C554.391 248.94 561.146 244.891 566.363 241.662C571.579 238.432 576.031 235.968 576.258 236.186C576.712 236.626 571.937 243.67 568.015 248.345C566.625 250.002 565.05 252.309 564.516 253.472C563.982 254.636 561.604 258.123 559.234 261.221C556.863 264.319 553.652 268.699 552.098 270.954C550.544 273.21 548.753 275.514 548.117 276.074C546.084 277.868 537.807 291.057 537.269 293.362C536.449 296.873 537.74 309.087 538.763 307.498C540.04 305.514 543.215 308.378 542.514 310.882C542.226 311.915 542.449 313.051 543.01 313.407C543.572 313.763 543.741 315.131 543.387 316.447C542.985 317.939 543.361 319.471 544.386 320.519C545.289 321.444 545.743 322.907 545.394 323.772C545.043 324.636 545.113 325.133 545.547 324.876C545.982 324.619 547.26 325.143 548.389 326.04C550.05 327.364 550.095 327.55 548.623 327.021C547.548 326.635 546.792 326.883 546.771 327.63C546.749 328.431 546.369 328.319 545.732 327.323C544.839 325.928 544.611 325.925 543.676 327.292C542.108 329.586 542.341 330.514 544.646 331.15C545.789 331.466 546.718 332.163 546.71 332.701C546.702 333.237 546.278 333.412 545.77 333.089C545.26 332.765 544.543 333.246 544.175 334.155C543.702 335.325 543.961 335.644 545.061 335.244C545.914 334.934 546.894 335.146 547.237 335.716C547.995 336.976 564.391 336.794 564.412 335.526C564.42 335.038 565.127 334.917 565.983 335.259C566.839 335.599 567.546 335.491 567.553 335.018C567.56 334.543 570.161 333.388 573.333 332.451C576.506 331.513 579.107 330.324 579.115 329.807C579.123 329.29 579.479 328.983 579.908 329.123C581.292 329.575 602.138 317.419 604.397 314.844C604.689 314.511 605.731 313.784 606.714 313.229C610.856 310.888 623.023 302.61 625.118 300.708C626.366 299.573 627.667 298.932 628.01 299.283C628.353 299.634 628.64 299.466 628.649 298.91C628.657 298.354 631.851 295.876 635.746 293.406C639.64 290.935 644.743 287.214 647.086 285.136C649.428 283.06 651.705 281.73 652.147 282.182C652.825 282.876 649.777 290.322 646.608 295.705C644.006 300.126 643.216 302.039 643.186 303.988C643.168 305.169 643.559 305.895 644.056 305.601C644.553 305.306 644.889 308.198 644.802 312.027C644.691 316.994 645.027 318.993 645.974 319.007C647.743 319.034 650.211 322.602 650.173 325.078C650.153 326.375 649.628 326.857 648.658 326.471C647.566 326.036 647.183 326.688 647.213 328.929C647.236 330.628 647.831 331.986 648.557 331.997C649.881 332.017 649.817 335.705 648.423 339.785C647.447 342.644 651.652 348.793 655.277 349.811C657.087 350.318 658.142 350.207 658.153 349.507C658.162 348.898 659.164 349.303 660.379 350.407C661.969 351.85 662.723 352.053 663.065 351.126C663.62 349.626 668.254 349.443 668.745 350.903C669.156 352.126 679.036 349.187 679.056 347.835C679.064 347.308 679.657 346.979 680.372 347.105C682.284 347.441 685.554 345.958 688.2 343.554C689.479 342.393 690.903 341.433 691.365 341.422C691.826 341.41 694.21 340.164 696.661 338.653C699.113 337.143 701.4 335.91 701.745 335.916C702.35 335.925 711.301 330.572 717.178 326.686C718.749 325.647 720.523 324.805 721.121 324.814C721.718 324.823 722.217 324.131 722.23 323.277C722.243 322.422 722.851 321.732 723.581 321.743C724.312 321.754 726.562 320.456 728.584 318.857C730.605 317.259 733.327 315.636 734.634 315.249C735.939 314.862 736.745 314.109 736.425 313.576C736.103 313.042 736.573 312.617 737.467 312.63C738.362 312.644 739.102 312.161 739.111 311.558C739.12 310.955 739.493 310.693 739.938 310.975C740.384 311.258 741.82 310.193 743.13 308.611C744.441 307.027 746.919 305.178 748.638 304.501C750.358 303.825 751.77 302.863 751.778 302.362C751.785 301.861 752.529 301.463 753.431 301.477C755.509 301.508 758.232 298.951 757.277 297.867C756.88 297.416 757.1 297.369 757.766 297.76C758.432 298.151 759.611 297.879 760.385 297.153C761.16 296.429 763.926 294.642 766.532 293.183C769.138 291.723 772.7 289.177 774.447 287.524C776.195 285.871 781.857 281.679 787.03 278.209C792.202 274.738 797.822 270.562 799.518 268.93C801.213 267.298 803.282 265.974 804.117 265.986C804.952 265.999 805.909 265.332 806.244 264.504C806.578 263.676 807.643 262.763 808.611 262.474C809.578 262.185 811.237 260.444 812.298 258.606C814.089 255.497 820.358 250.693 822.577 250.727C823.111 250.735 823.555 250.306 823.563 249.775C823.571 249.244 824.57 248.513 825.783 248.151C829.62 247.007 840.725 239.239 847.115 233.228C849.351 231.126 851.512 229.41 851.92 229.416C852.327 229.422 855.197 227.135 858.297 224.333C861.397 221.531 864.584 219.248 865.381 219.261C866.176 219.273 866.834 218.802 866.843 218.215C866.852 217.626 867.687 216.862 868.696 216.514C870.843 215.775 879.39 210.337 881.42 208.417C882.19 207.689 883.468 207.103 884.26 207.115C885.051 207.127 886.082 206.561 886.552 205.855C887.023 205.151 889.545 202.991 892.158 201.058C894.771 199.124 897.071 197.178 897.269 196.732C897.468 196.287 898.53 195.936 899.63 195.953C900.731 195.97 901.638 195.506 901.647 194.921C901.656 194.338 902.727 193.415 904.027 192.87C905.326 192.326 907.813 190.988 909.552 189.899C913.232 187.592 924.441 181.708 927.316 180.573C928.998 179.91 928.903 180.292 926.68 183.138C925.243 184.977 922.904 188.069 921.481 190.008C918.98 193.416 915.793 197.306 913.566 199.67C912.975 200.297 911.672 201.964 910.671 203.373C909.669 204.783 907.42 207.779 905.673 210.032C903.926 212.284 901.442 216.327 900.156 219.013C898.87 221.7 897.415 223.893 896.923 223.885C895.627 223.866 891.645 231.702 892.505 232.581C892.903 232.989 892.478 233.856 891.558 234.508C889.356 236.067 887.374 239.71 887.444 242.063C887.482 243.356 887.957 242.979 888.961 240.859C890.352 237.92 890.405 238.093 890.063 244.502C889.805 249.338 890.201 252.16 891.471 254.53C893.047 257.47 893.082 258.457 891.789 263.62C890.992 266.806 890.691 269.634 891.119 269.907C892.634 270.868 892.817 275.616 891.383 276.76C889.358 278.377 889.561 280.413 891.995 282.903C893.147 284.082 893.783 285.519 893.41 286.099C892.548 287.438 901.092 295.403 903.449 295.459C904.42 295.482 905.478 295.94 905.803 296.479C906.127 297.017 907.205 297.452 908.199 297.446C909.192 297.439 911.644 297.765 913.648 298.171C915.651 298.576 919.504 299.033 922.211 299.184C925.127 299.348 927.984 300.208 929.225 301.295C931.228 303.05 931.32 303.041 931.35 301.091C931.377 299.285 931.681 299.193 934 300.284C935.986 301.218 936.92 301.227 937.862 300.321C939.602 298.645 940.779 298.852 940.749 300.83C940.728 302.193 941.018 302.275 942.279 301.269C943.153 300.571 947.705 299.949 952.667 299.851C957.525 299.755 962.077 299.334 962.781 298.917C963.487 298.499 965.757 298.067 967.828 297.959C969.897 297.85 975.366 296.637 979.98 295.264C984.594 293.891 989.546 292.636 990.983 292.476C992.421 292.315 993.607 291.55 993.619 290.774C993.634 289.825 995.206 289.308 998.427 289.194C1003.35 289.018 1004.68 290.553 1002.22 293.565C1001.66 294.244 1001.45 295.205 1001.75 295.703C1002.05 296.2 1001.33 298.131 1000.15 299.995C998.864 302.021 998.291 304.066 998.723 305.081C999.122 306.014 999.343 307.36 999.217 308.069C999.09 308.78 999.829 309.381 1000.86 309.405C1002.35 309.441 1002.43 309.63 1001.25 310.348C1000.13 311.028 1000.99 312.024 1004.83 314.476C1009.28 317.318 1010.01 317.509 1010.85 316.055C1011.54 314.883 1011.28 313.995 1009.95 312.998C1008.91 312.226 1008.34 311.337 1008.66 311.024C1008.99 310.711 1009.97 311.187 1010.84 312.082C1011.72 312.978 1012.85 313.716 1013.37 313.724C1013.89 313.732 1014.08 315.134 1013.8 316.839C1013.31 319.829 1014.76 321.121 1016.16 318.947C1016.99 317.655 1019.83 317.64 1019.81 318.927C1019.8 319.454 1018.97 320.087 1017.96 320.333C1016.8 320.616 1017.14 320.837 1018.91 320.941C1020.44 321.03 1021.96 321.691 1022.28 322.408C1022.73 323.4 1023.02 323.418 1023.48 322.484C1024.14 321.152 1027.11 321.907 1028.35 323.719C1028.87 324.476 1029.47 324.34 1030.2 323.305C1031.15 321.964 1031.47 322.011 1032.71 323.665C1033.6 324.863 1034.38 325.161 1034.82 324.474C1035.83 322.912 1037.82 323.162 1037.17 324.769C1036.77 325.752 1037.62 326.054 1040.3 325.885C1042.33 325.758 1044.85 326.135 1045.92 326.722C1047.25 327.453 1047.87 327.446 1047.88 326.699C1047.89 326.052 1048.95 325.888 1050.5 326.298C1053.72 327.152 1085.44 328.052 1085.45 327.29C1085.46 326.986 1088.52 326.784 1092.25 326.84C1095.98 326.897 1099.02 327.242 1099.02 327.605C1099 328.418 1102.46 328.269 1103.19 327.427C1104.24 326.23 1111.57 325.688 1111.55 326.808C1111.54 327.537 1112.03 327.515 1113 326.74C1113.8 326.098 1115.81 325.682 1117.45 325.815C1119.09 325.948 1122.09 325.687 1124.11 325.235C1126.12 324.783 1130.12 324.324 1132.99 324.215C1138.39 324.01 1141.86 323.599 1148.16 322.415C1150.17 322.038 1153.11 321.757 1154.69 321.793C1156.27 321.828 1157.57 321.454 1157.58 320.961C1157.58 320.468 1158.29 320.076 1159.16 320.089C1160.02 320.102 1160.71 320.579 1160.7 321.149C1160.69 322.413 1163.01 322.093 1164.09 320.682C1164.56 320.07 1164.87 320.242 1164.87 321.114C1164.86 322.264 1165.27 322.211 1166.82 320.859C1167.9 319.919 1169.51 319.436 1170.39 319.788C1171.27 320.139 1172.31 319.925 1172.7 319.313C1173.1 318.701 1173.85 318.472 1174.37 318.802C1174.89 319.133 1176.97 318.977 1179 318.455C1181.48 317.816 1182.68 317.853 1182.67 318.57C1182.66 319.169 1183.45 319.327 1184.49 318.931C1185.5 318.544 1187.74 318.017 1189.46 317.757C1191.19 317.498 1192.9 316.831 1193.26 316.276C1193.62 315.713 1194.19 316.017 1194.53 316.959C1195.01 318.233 1195.63 318.413 1197.06 317.681C1199.57 316.399 1215.87 314.456 1217.18 315.284C1217.74 315.639 1218.78 315.584 1219.5 315.161C1220.21 314.737 1221.51 314.299 1222.38 314.185C1228.31 313.416 1234.54 312.891 1242.13 312.523C1246.94 312.29 1251.76 311.643 1252.85 311.088C1254.38 310.302 1254.82 310.432 1254.8 311.667C1254.79 312.541 1255.25 313.264 1255.82 313.273C1256.39 313.281 1256.87 312.837 1256.88 312.285C1256.89 311.734 1257.6 311.563 1258.46 311.907C1259.33 312.252 1260.74 311.968 1261.61 311.277C1262.47 310.588 1263.17 310.264 1263.17 310.558C1263.16 310.854 1264.9 310.733 1267.02 310.292C1269.14 309.85 1271.62 309.899 1272.53 310.397C1273.44 310.903 1274.91 310.91 1275.84 310.412C1276.75 309.922 1279.5 309.302 1281.94 309.035C1284.38 308.769 1286.79 308.306 1287.3 308.006C1288.26 307.434 1299.71 306.858 1316.61 306.529C1322.14 306.421 1327.15 306.052 1327.73 305.708C1328.31 305.364 1329.36 305.791 1330.06 306.657C1331.03 307.855 1331.68 307.956 1332.78 307.079C1333.58 306.444 1334.22 306.272 1334.21 306.696C1334.21 307.121 1334.82 306.976 1335.57 306.374C1336.32 305.773 1337.86 305.334 1338.98 305.4C1340.1 305.466 1345.95 305.298 1351.99 305.029C1374.28 304.03 1392.7 304.59 1392.68 306.267C1392.67 306.96 1393.13 306.951 1394.02 306.242C1394.76 305.648 1397.31 305.217 1399.67 305.286C1402.04 305.355 1404.5 305.103 1405.13 304.728C1405.77 304.353 1406.28 304.656 1406.28 305.402C1406.28 306.485 1406.46 306.479 1407.19 305.371C1408.05 304.063 1411.65 303.978 1435.98 304.688C1437.1 304.721 1438.62 305.259 1439.35 305.883C1440.31 306.698 1440.69 306.689 1440.71 305.855C1440.72 305.215 1441.43 304.703 1442.29 304.716C1443.15 304.729 1443.85 305.169 1443.84 305.692C1443.83 306.255 1445.38 306.243 1447.64 305.662C1450.58 304.905 1451.65 304.999 1452.31 306.076C1453.01 307.209 1453.18 307.189 1453.21 305.97C1453.24 304.897 1453.57 304.793 1454.36 305.601C1455.07 306.33 1456.83 306.452 1459.28 305.943C1461.44 305.494 1463.58 305.564 1464.21 306.104C1464.89 306.684 1467.27 306.512 1470.27 305.666C1475.41 304.214 1475.55 304.187 1477.3 304.213C1478.8 304.236 1480.45 299.752 1479.23 298.954C1477.43 297.78 1481.72 294.903 1485.08 295.03C1486.89 295.098 1490.55 295.049 1493.23 294.921C1495.91 294.793 1497.87 295.033 1497.6 295.457C1497.32 295.88 1497.58 296.234 1498.17 296.243C1499.75 296.267 1501.54 292.542 1500.85 290.66C1500.46 289.624 1498.96 289.002 1496.76 288.969C1494.85 288.94 1492.95 288.366 1492.55 287.692C1492.05 286.869 1492.37 286.694 1493.54 287.157C1494.49 287.535 1495.26 287.698 1495.27 287.518C1495.28 286.605 1491.44 282.956 1489.8 282.323C1488.69 281.896 1488.24 281.097 1488.7 280.389C1489.22 279.575 1488.91 279.387 1487.74 279.811C1486.67 280.2 1486.11 279.962 1486.27 279.188C1486.44 278.415 1485.44 277.992 1483.67 278.085C1482.09 278.169 1480.8 277.776 1480.81 277.211C1480.82 276.648 1479.42 275.676 1477.71 275.054C1475.84 274.377 1474.61 273.194 1474.62 272.104C1474.64 271.104 1473.52 269.034 1472.13 267.506C1469.87 265.01 1468.84 264.705 1462 264.524C1457.81 264.412 1453.45 264.129 1452.3 263.895C1446.53 262.713 1429.61 261.042 1415.73 260.28C1407.18 259.811 1396.52 259.02 1392.05 258.521C1385.65 257.807 1347.12 257.139 1323.48 257.332C1321.47 257.348 1314.61 257.275 1308.23 257.169C1298.43 257.006 1282.5 257.641 1243.53 259.75C1240.05 259.938 1233.23 260.545 1228.37 261.098C1223.51 261.652 1216.95 262.199 1213.79 262.313C1210.64 262.428 1207.81 262.627 1207.52 262.756C1207.24 262.886 1203.71 263.151 1199.69 263.345C1195.66 263.539 1189.78 264.128 1186.62 264.654C1183.45 265.181 1179.14 265.679 1177.03 265.761C1174.92 265.843 1172.86 266.238 1172.44 266.639C1172.03 267.04 1170.88 266.922 1169.89 266.377C1168.9 265.833 1167.91 265.556 1167.69 265.763C1167.46 265.97 1165.52 266.387 1163.37 266.69C1161.21 266.993 1157.44 267.703 1154.99 268.269C1152.54 268.835 1149.59 269.432 1148.44 269.598C1147.29 269.763 1146.35 269.994 1146.34 270.11C1146.34 270.226 1143.75 270.474 1140.59 270.66C1130.56 271.251 1127.35 271.614 1126.22 272.287C1125.61 272.646 1124.01 272.855 1122.66 272.75C1120.07 272.546 1111.8 273.216 1098.73 274.686C1089.78 275.694 1070.56 276.533 1065.87 276.121C1064.15 275.97 1061.69 275.78 1060.4 275.699C1057.31 275.506 1057.44 274.603 1060.78 273.155C1062.27 272.508 1063.3 271.4 1063.06 270.693C1062.66 269.497 1065.39 267.662 1071.79 264.819C1076.26 262.831 1079.62 261.552 1080.71 261.421C1081.63 261.31 1083.6 260.607 1089.63 258.233C1091.71 257.415 1092.58 257.172 1097.26 256.091C1099.43 255.589 1102.26 254.543 1103.56 253.767C1106.08 252.248 1110.88 250.387 1135.3 241.445C1143.96 238.274 1152.23 234.937 1153.68 234.031C1155.13 233.126 1159.86 230.873 1164.19 229.026C1168.53 227.18 1176.93 223.487 1182.87 220.82C1188.81 218.154 1194.17 215.98 1194.79 215.989C1195.4 215.999 1197.1 215.098 1198.57 213.989C1200.04 212.879 1201.6 212.202 1202.04 212.484C1202.49 212.765 1203.97 211.857 1205.34 210.466C1206.71 209.074 1208.6 207.939 1209.54 207.943C1210.47 207.948 1211.84 207.25 1212.58 206.393C1213.32 205.536 1214.15 205.068 1214.43 205.354C1214.71 205.64 1216.25 204.975 1217.86 203.877C1219.46 202.779 1221.29 201.888 1221.92 201.898C1222.55 201.907 1223.07 201.449 1223.08 200.879C1223.09 200.31 1223.45 199.904 1223.88 199.978C1225.89 200.324 1227.2 199.68 1230.29 196.845C1232.11 195.163 1234.1 193.795 1234.7 193.804C1235.3 193.813 1236.97 193.078 1238.41 192.169C1240.33 190.965 1240.88 189.924 1240.45 188.315C1240.01 186.63 1240.11 186.469 1240.89 187.634C1241.78 188.95 1242.31 188.965 1244.87 187.744C1248.51 186.009 1253.65 181.635 1253.67 180.253C1253.68 179.691 1252.92 178.369 1251.98 177.313C1250.97 176.164 1250.77 175.399 1251.49 175.41C1252.15 175.42 1252.69 175.895 1252.68 176.465C1252.62 180.213 1260.86 174.351 1261.37 170.276C1261.55 168.911 1262.29 167.184 1263.02 166.436C1263.76 165.69 1264.1 164.646 1263.78 164.117C1263.46 163.589 1263.7 163.163 1264.3 163.173C1266.25 163.202 1265.51 154.563 1263.12 149.351C1261.85 146.583 1260.5 144.348 1260.12 144.384C1257.93 144.592 1257.48 144.255 1258.05 142.832C1258.4 141.96 1258.28 141.313 1257.78 141.397C1255.2 141.823 1253.22 141.078 1253.24 139.693C1253.25 138.738 1252.29 138.124 1250.73 138.1C1248.89 138.072 1248.11 137.417 1247.89 135.726C1247.73 134.442 1247.01 133.323 1246.29 133.241C1245.58 133.159 1244.64 132.972 1244.21 132.828C1243.78 132.683 1243.08 132.613 1242.65 132.675C1241.14 132.887 1241.9 131.159 1243.94 129.75C1245.84 128.431 1245.86 128.237 1244.25 127.025C1242.93 126.037 1242.29 126.009 1241.62 126.912C1240.95 127.816 1240.61 127.803 1240.24 126.861C1239.97 126.177 1239.11 125.849 1238.33 126.135C1237.42 126.462 1236.79 125.766 1236.6 124.236C1236.36 122.409 1235.65 121.837 1233.68 121.882C1232.24 121.916 1230.24 122.285 1229.23 122.702C1227.91 123.245 1227.4 122.993 1227.41 121.821C1227.43 120.919 1226.28 119.399 1224.86 118.444C1223.43 117.489 1222.29 115.779 1222.3 114.644C1222.32 113.3 1221.82 112.768 1220.86 113.116C1219.99 113.434 1219.19 112.836 1218.9 111.642C1218.36 109.466 1216.13 108.82 1216.1 110.831C1216.09 111.508 1215.09 110.97 1213.87 109.635C1211.78 107.339 1211.15 107.234 1202.22 107.694C1197.03 107.961 1192.3 108.645 1191.71 109.213C1191.12 109.782 1189.56 110.231 1188.24 110.211C1186.92 110.191 1185.83 110.64 1185.82 111.21C1185.81 111.78 1185.07 112.235 1184.18 112.221C1182.41 112.194 1161.52 122.209 1160.47 123.584C1159.88 124.365 1157.72 125.588 1150.95 128.973C1149.42 129.739 1147.52 131.116 1146.73 132.034C1145.93 132.953 1144.11 134.198 1142.66 134.803C1137.68 136.888 1116.42 150.92 1116.94 151.783C1117.22 152.259 1116.71 152.636 1115.79 152.622C1114.25 152.599 1106.19 158.418 1097.46 165.854C1095.52 167.51 1093.74 168.863 1093.5 168.86C1093.14 168.854 1088.71 172.71 1082.4 178.518C1081.48 179.367 1080.26 180.055 1079.7 180.046C1079.13 180.038 1076.79 181.997 1074.5 184.402C1072.21 186.806 1069.15 189.535 1067.7 190.467C1066.25 191.399 1060.3 196.538 1054.47 201.888C1048.65 207.238 1043.53 211.611 1043.1 211.605C1042.67 211.599 1042.31 212.294 1042.3 213.149C1042.28 214.003 1041.87 214.696 1041.38 214.689C1040.89 214.681 1039.24 215.795 1037.7 217.163C1034.68 219.863 1025.03 224.8 1022.85 224.767C1022.11 224.756 1020.91 225.432 1020.19 226.269C1019.46 227.107 1018.52 227.567 1018.08 227.292C1017.34 226.819 1006.61 230.054 999.72 232.828C997.987 233.526 996.098 234.16 995.523 234.237C994.947 234.314 993.768 234.641 992.902 234.963C982.527 238.817 954.723 246.523 951.37 246.472C950.153 246.453 952.541 241.655 954.914 239.35C956.404 237.904 957.216 236.207 956.869 235.268C956.542 234.383 956.608 234.001 957.016 234.418C957.971 235.395 961.626 232.236 961.654 230.409C961.666 229.642 962.106 229.022 962.633 229.03C963.161 229.038 964.689 227.314 966.03 225.197C967.37 223.081 968.801 221.121 969.209 220.842C971.12 219.537 979.74 208.043 979.76 206.773C979.772 205.985 980.216 205.615 980.746 205.952C981.277 206.289 982.569 205.17 983.619 203.467C984.668 201.763 985.838 200.374 986.218 200.38C986.598 200.386 988.756 197.738 991.013 194.495C993.269 191.253 996.022 187.867 997.131 186.971C998.24 186.076 999.239 184.226 999.352 182.861C999.466 181.496 1000.12 180.505 1000.82 180.658C1001.51 180.811 1002.09 180.24 1002.1 179.391C1002.12 178.036 1004.33 175.02 1008.05 171.296C1008.68 170.665 1009 169.535 1008.76 168.786C1008.52 168.038 1009.32 167.184 1010.53 166.888C1013.02 166.282 1013.29 165.48 1011.58 163.732C1010.7 162.829 1011.08 162.37 1013.13 161.893C1016.08 161.206 1020.22 154.47 1020.29 150.261C1020.31 148.768 1020.75 148.208 1021.52 148.695C1022.31 149.196 1022.43 148.989 1021.89 148.087C1021.4 147.268 1021.67 146.274 1022.56 145.605C1024.53 144.134 1026.91 138.936 1026.17 137.711C1025.85 137.178 1026.03 136.75 1026.57 136.758C1028 136.78 1028.83 131.755 1027.47 131.279C1026.67 130.998 1026.74 130.387 1027.69 129.284C1028.81 127.974 1028.77 127.404 1027.48 126.077C1026.61 125.189 1025.91 123.731 1025.92 122.835C1025.94 121.493 1025.03 120.869 1023.6 121.245C1023.45 121.283 1022.11 120.83 1020.62 120.239C1018.71 119.488 1017.53 119.51 1016.7 120.314C1016.04 120.946 1015.45 121.136 1015.39 120.736C1015.32 120.336 1015.21 119.642 1015.15 119.192C1015.08 118.743 1013.53 116.738 1011.7 114.736C1009.87 112.735 1008.37 110.731 1008.37 110.281C1008.38 109.833 1006.53 109.658 1004.26 109.894C1001.65 110.166 999.963 109.871 999.644 109.086C999.283 108.196 998.75 108.279 997.748 109.382C996.981 110.225 995.063 110.914 993.483 110.911C990.583 110.909 989.753 109.919 991.689 108.771C993.569 107.657 992.906 103.96 990.717 103.356C989.568 103.039 987.921 101.241 987.057 99.3608C985.551 96.0835 981.065 93.8064 979.846 95.6993C979.559 96.1446 977.949 96.7873 976.268 97.1264C974.586 97.4665 972.641 98.4056 971.945 99.2124C971.248 100.02 969.796 100.668 968.719 100.651C967.641 100.635 966.752 101.087 966.743 101.657C966.735 102.227 965.828 102.679 964.727 102.662C963.627 102.646 962.565 102.979 962.367 103.404C962.169 103.828 960.115 105.056 957.802 106.132C955.489 107.209 951.557 109.363 949.065 110.921C946.572 112.477 944.338 113.749 944.1 113.745C943.861 113.741 939.623 116.241 934.682 119.3C929.74 122.359 925.28 124.855 924.772 124.847C924.263 124.84 923.242 125.535 922.502 126.392C921.763 127.249 920.929 127.717 920.649 127.431C920.369 127.145 918.673 127.923 916.879 129.161C915.085 130.399 912.809 131.866 911.821 132.421C910.833 132.975 907.94 134.653 905.392 136.15C902.844 137.646 900.131 139.004 899.363 139.166C898.595 139.328 897.143 140.216 896.137 141.137C895.132 142.059 890.824 144.752 886.565 147.123C882.305 149.493 878.657 151.818 878.459 152.29C878.26 152.76 877.45 153.136 876.656 153.124C875.863 153.112 874.715 153.996 874.104 155.087C873.494 156.179 871.933 157.38 870.635 157.756C868.392 158.407 859.464 164.145 853.015 169.082C851.373 170.339 849.528 171.36 848.913 171.351C848.298 171.341 847.279 172.258 846.647 173.388C846.015 174.518 844.575 175.429 843.448 175.412C842.32 175.395 841.39 175.821 841.382 176.359C841.374 176.898 840.211 177.93 838.799 178.651C834.385 180.907 825.01 187.308 821.509 190.456C819.664 192.115 818.16 193.216 818.164 192.904C818.169 192.592 817.026 193.437 815.624 194.781C812.231 198.034 810.602 199.24 807.54 200.766C806.131 201.469 804.206 202.786 803.265 203.691C802.323 204.597 800.474 206.021 799.157 206.855C795 209.489 783.644 218.13 779.747 221.625C779.097 222.208 777.544 223.361 776.298 224.187C772.146 226.938 763.929 233.726 760.058 237.601C757.956 239.706 755.755 241.42 755.166 241.411C754.577 241.402 752.044 243.218 749.536 245.447C747.028 247.676 744.1 249.76 743.029 250.08C741.957 250.399 741.075 251.052 741.068 251.528C741.06 252.006 738.875 253.62 736.211 255.115C732.688 257.094 731.06 257.519 730.237 256.676C729.415 255.835 729.568 255.526 730.798 255.545C731.799 255.56 732.767 254.399 733.17 252.7C733.545 251.12 735.761 247.775 738.094 245.263C742.846 240.149 745.751 235.273 744.896 233.851C744.584 233.332 744.713 232.979 745.186 233.068C748.58 233.706 751.845 229.385 749.392 227.498C748.663 226.937 748.879 226.821 749.971 227.185C751.9 227.829 757.487 223.127 756.581 221.622C756.276 221.117 756.454 220.71 756.974 220.718C758.719 220.744 763.004 216.484 762.716 215.008C762.546 214.131 763.283 213.561 764.565 213.581C765.738 213.599 766.704 213.242 766.711 212.788C766.726 211.755 769.481 208.3 773.664 204.071C775.432 202.281 778.778 198.543 781.098 195.764C783.417 192.984 786.457 189.534 787.854 188.096C789.25 186.659 791.698 183.533 793.294 181.15C794.888 178.768 796.49 177.121 796.852 177.492C797.214 177.862 797.526 177.124 797.546 175.851C797.583 173.389 801.391 168.424 809.441 160.341C812.163 157.608 814.694 154.47 815.065 153.369C815.436 152.267 818.107 149.051 821 146.222C823.893 143.392 826.266 140.653 826.274 140.138C826.282 139.621 827.673 138.179 829.363 136.932C831.054 135.687 832.74 133.544 833.109 132.173C833.478 130.8 834.504 129.689 835.388 129.702C836.272 129.716 836.777 129.364 836.51 128.922C836.243 128.478 837.657 126.35 839.652 124.192C841.647 122.034 843.289 119.614 843.301 118.815C843.313 118.015 844.743 116.532 846.479 115.52C848.214 114.508 849.325 113.363 848.947 112.975C848.567 112.587 849.938 110.785 851.991 108.968C854.045 107.151 858.364 102.208 861.588 97.9833C864.813 93.7587 868.711 89.0149 870.251 87.4417C871.791 85.8697 873.055 84.2955 873.061 83.9454C873.072 83.1923 875.319 80.7628 880.756 75.6248C882.941 73.5601 884.732 71.5318 884.739 71.1165C884.745 70.7021 885.585 69.5317 886.605 68.5174C887.625 67.5021 892.044 62.6761 896.425 57.7914C900.805 52.9068 904.742 48.9147 905.172 48.9192C905.602 48.9237 905.966 48.1656 905.98 47.2344C905.994 46.3022 907.241 44.4386 908.749 43.093C910.309 41.7015 911.25 39.9877 910.931 39.1218C910.598 38.2206 910.981 37.6079 911.868 37.6214C912.797 37.6355 913.14 37.0264 912.769 36.023C912.421 35.079 913.117 33.5541 914.433 32.3724C916.197 30.7913 916.471 29.9106 915.676 28.3807C915.115 27.3008 914.983 25.608 915.382 24.6194C915.94 23.2396 915.704 22.9687 914.365 23.455C913.406 23.804 912.676 23.7577 912.743 23.3515C913.088 21.266 912.432 20.4468 910.304 20.3108C909.014 20.228 908.544 20.3938 909.261 20.6804C909.978 20.9669 910.305 21.6038 909.989 22.0953C909.672 22.5868 908.728 22.7154 907.891 22.3814C907.053 22.0485 906.359 22.2908 906.35 22.9216C906.34 23.5524 905.863 24.0611 905.289 24.0523C903.643 24.0273 904.12 20.9274 905.868 20.292C906.734 19.9767 907.449 19.2758 907.457 18.7331C907.466 18.1903 906.967 18.047 906.348 18.4136C905.73 18.7793 904.994 18.1506 904.713 17.0159C904.38 15.664 903.566 15.1076 902.354 15.4021C901.337 15.6498 899.763 15.0922 898.855 14.1635C897.883 13.1686 896.142 12.65 894.616 12.9013C892.506 13.2473 891.84 12.7658 891.015 10.2946C890.238 7.97131 889.559 7.42015 888.107 7.93678C885.252 8.95112 883.44 11.6059 884.935 12.5818C885.842 13.1748 885.833 13.3674 884.896 13.3655C883.401 13.3614 882.141 11.4525 881.995 8.96989C881.911 7.57201 882.203 7.42209 883.259 8.32091C885.999 10.6471 884.563 7.58235 881.114 3.73989C877.205 -0.615166 876.946 -0.704059 873.497 1.12801ZM272.077 42.8282C270.946 43.6522 270.642 44.378 271.33 44.6175C272.125 44.8938 271.98 45.9515 270.865 48.0076C269.973 49.6518 269.477 51.3827 269.761 51.8554C270.046 52.328 269.574 52.7042 268.713 52.691C266.183 52.6525 265.646 50.5567 267.759 48.9664C268.925 48.089 269.133 47.5979 268.274 47.7485C267.482 47.8867 266.628 47.4137 266.375 46.697C266.078 45.8522 266.509 45.6309 267.602 46.0661C268.53 46.4356 269.219 46.33 269.135 45.8315C268.629 42.8243 269.478 41.3091 271.633 41.372C273.841 41.4367 273.868 41.5231 272.077 42.8282ZM272.812 49.6453C273.158 50.2204 272.943 50.6833 272.336 50.6741C271.728 50.6648 271.238 50.1911 271.246 49.6214C271.255 49.0517 271.469 48.5888 271.722 48.5926C271.976 48.5965 272.466 49.0702 272.812 49.6453ZM265.631 55.7523C265.314 56.8871 265.479 57.8221 266 57.83C266.52 57.838 266.937 58.41 266.927 59.1019C266.914 59.9441 266.385 59.8252 265.328 58.744C264.434 57.829 264.051 56.3779 264.446 55.4006C265.423 52.9829 266.331 53.2526 265.631 55.7523ZM415.191 57.2149C415.184 57.6634 414.752 58.0236 414.233 58.0156C413.712 58.0077 413.518 58.9372 413.8 60.0812C414.089 61.2439 413.801 62.1533 413.15 62.1434C412.508 62.1336 411.992 61.6285 412.001 61.0204C412.011 60.3855 411.123 60.1813 409.92 60.5401C407.339 61.311 407.272 60.5744 409.697 58.0895C411.526 56.2141 415.215 55.6269 415.191 57.2149ZM269.065 55.8046C269.056 56.3743 268.842 56.8373 268.589 56.8334C268.335 56.8295 267.845 56.3559 267.499 55.7807C267.153 55.2056 267.368 54.7427 267.975 54.7519C268.582 54.7612 269.073 55.2349 269.065 55.8046ZM409.837 62.0929C410.285 62.0998 410.409 63.2672 410.113 64.6873C409.525 67.5068 407.716 68.2283 407.755 65.6263C407.769 64.7386 407.274 64.3115 406.656 64.6771C406.039 65.0438 405.767 65.5826 406.053 65.876C406.34 66.1684 405.648 67.3649 404.517 68.5339C403.385 69.703 402.45 71.2708 402.439 72.0187C402.427 72.7655 401.656 73.365 400.725 73.3509C399.338 73.3297 399.27 73.0479 400.354 71.7911C401.082 70.9475 401.267 70.2364 400.767 70.2122C400.267 70.187 400.687 69.7044 401.699 69.1386C402.776 68.5375 403.561 66.8762 403.587 65.1412C403.633 62.1176 405.151 60.8011 407.641 61.6233C408.401 61.8753 409.39 62.0861 409.837 62.0929ZM261.111 63.972C261.457 64.5471 261.242 65.01 260.635 65.0008C260.028 64.9915 259.537 64.5178 259.546 63.9481C259.554 63.3784 259.768 62.9154 260.022 62.9193C260.275 62.9232 260.765 63.3969 261.111 63.972ZM258.36 73.2546C258.351 73.8243 257.875 74.2833 257.301 74.2746C256.727 74.2658 256.264 73.7925 256.273 73.2228C256.281 72.6531 256.758 72.1942 257.332 72.2029C257.906 72.2117 258.369 72.6849 258.36 73.2546ZM404.483 74.9011C404.479 75.1528 404.002 75.6387 403.422 75.9821C402.843 76.3255 402.376 76.1122 402.385 75.5094C402.395 74.9065 402.872 74.4196 403.446 74.4284C404.02 74.4371 404.486 74.6494 404.483 74.9011ZM255.704 76.3224C255.34 76.8867 254.573 77.3412 253.999 77.3325C253.425 77.3237 253.253 76.8549 253.616 76.2906C253.98 75.7263 254.747 75.2717 255.321 75.2805C255.895 75.2892 256.067 75.7581 255.704 76.3224ZM147.733 77.182C147.681 77.5138 147.284 77.8186 146.853 77.8607C146.421 77.9028 145.475 78.4116 144.748 78.9911C144.022 79.5717 143.432 79.6912 143.439 79.2571C143.445 78.8221 144.281 77.8837 145.295 77.1708C147.076 75.9194 147.933 75.9232 147.733 77.182ZM142.387 79.7768C142.378 80.3465 141.873 80.805 141.266 80.7958C140.658 80.7865 140.458 80.3172 140.821 79.7529C141.185 79.1886 141.689 78.7301 141.942 78.7339C142.196 78.7378 142.396 79.2071 142.387 79.7768ZM252.739 81.0473C252.387 81.3859 251.486 81.4095 250.738 81.0986C249.91 80.7555 250.161 80.5138 251.378 80.4826C252.479 80.4548 253.091 80.7086 252.739 81.0473ZM396.52 83.6475C396.157 84.2118 395.418 84.6667 394.877 84.6585C394.337 84.6503 393.902 84.1774 393.911 83.6077C393.92 83.038 394.659 82.5831 395.554 82.5967C396.448 82.6103 396.884 83.0832 396.52 83.6475ZM252.964 84.8872C252.952 85.631 252.515 85.5777 251.686 84.73C250.691 83.7119 250.044 83.9279 248.61 85.7555C247.611 87.0291 246.501 87.7706 246.142 87.4035C245.783 87.0365 246.527 85.8066 247.793 84.6707C250.087 82.6128 252.996 82.7348 252.964 84.8872ZM136.07 83.2798C136.066 83.5502 134.643 84.4734 132.907 85.3307C131.172 86.1881 129.758 86.5022 129.765 86.0278C129.772 85.5534 131.078 84.6781 132.665 84.0827C134.253 83.4884 135.671 82.9536 135.815 82.8947C135.959 82.8368 136.074 83.0095 136.07 83.2798ZM393.159 89.2946C392.815 90.1441 392.114 90.8328 391.602 90.825C391.089 90.8172 390.68 90.1116 390.693 89.2571C390.706 88.4025 391.407 87.7138 392.25 87.7267C393.183 87.7409 393.538 88.3534 393.159 89.2946ZM128.702 87.2777C128.698 87.5294 128.221 88.0153 127.642 88.3587C127.062 88.7022 126.596 88.4889 126.605 87.886C126.614 87.2832 127.091 86.7962 127.665 86.805C128.239 86.8137 128.706 87.026 128.702 87.2777ZM581.612 96.9381C581.604 97.4467 580.367 97.8443 578.862 97.8214C576.597 97.7869 576.344 97.5251 577.395 96.3061C578.686 94.8089 581.638 95.2507 581.612 96.9381ZM125.11 90.1333C125.513 90.8522 125.462 91.0877 124.999 90.6589C124.536 90.2292 123.507 90.3969 122.713 91.0303C121.919 91.6647 120.947 91.853 120.553 91.4501C120.16 91.0473 120.534 90.2946 121.387 89.7772C123.473 88.5118 124.244 88.5857 125.11 90.1333ZM209.718 92.3938C209.373 93.2142 209.129 92.965 209.097 91.7575C209.069 90.6651 209.325 90.0577 209.666 90.4068C210.007 90.756 210.031 91.6505 209.718 92.3938ZM289.738 92.9443C289.385 93.8185 288.875 94.3081 288.606 94.0325C288.336 93.757 288.433 93.0384 288.821 92.4371C289.875 90.7996 290.471 91.1299 289.738 92.9443ZM390.631 93.3393C390.615 94.432 388.605 94.8614 388.024 93.8953C387.672 93.3107 388.117 92.844 389.011 92.8577C389.906 92.8713 390.635 93.0875 390.631 93.3393ZM116.445 94.4046C115.863 95.841 115.383 96.0627 112.265 96.327C111.624 96.3815 110.204 97.1048 109.109 97.9346C107.255 99.3382 107.222 99.3139 108.64 97.5793C109.836 96.1149 113.135 94.2495 116.84 92.9414C116.965 92.8967 116.787 93.555 116.445 94.4046ZM577.845 102.643C576.985 103.469 576.277 104.53 576.27 104.997C576.263 105.465 575.571 106.098 574.732 106.403C573.488 106.855 573.544 106.327 575.036 103.545C576.042 101.669 577.438 100.359 578.136 100.636C579.086 101.012 579.012 101.519 577.845 102.643ZM995.961 107.886C995.992 109.094 996.236 109.343 996.581 108.523C996.894 107.779 996.87 106.885 996.529 106.536C996.188 106.187 995.932 106.794 995.961 107.886ZM491.789 100.011C491.786 100.234 491.05 100.684 490.154 101.01C489.22 101.349 488.804 101.169 489.178 100.588C489.806 99.6126 491.802 99.1716 491.789 100.011ZM280.421 98.4562C280.767 99.0313 280.552 99.4942 279.945 99.485C279.338 99.4757 278.847 99.002 278.855 98.4323C278.864 97.8626 279.078 97.3997 279.331 97.4035C279.585 97.4074 280.075 97.8811 280.421 98.4562ZM346.155 102.366C345.83 102.68 344.992 102.349 344.294 101.63C343.287 100.591 343.409 100.474 344.888 101.058C345.911 101.464 346.481 102.051 346.155 102.366ZM482.835 105.336C481.099 106.213 478.844 107.634 477.822 108.494C476.801 109.352 475.752 109.838 475.492 109.573C474.891 108.957 483.434 103.607 484.896 103.684C485.499 103.716 484.571 104.459 482.835 105.336ZM270.817 104.062C271.159 104.989 270.978 105.402 270.392 105.031C269.83 104.674 269.376 103.944 269.385 103.407C269.407 101.918 270.151 102.258 270.817 104.062ZM573.445 109.654C573.762 110.513 573.567 111.21 573.012 111.201C572.455 111.193 572.011 110.487 572.024 109.632C572.037 108.777 572.232 108.081 572.458 108.084C572.683 108.088 573.128 108.794 573.445 109.654ZM198.392 103.88C198.388 104.132 197.911 104.618 197.331 104.961C196.752 105.305 196.285 105.091 196.294 104.488C196.304 103.886 196.781 103.399 197.355 103.407C197.929 103.416 198.395 103.628 198.392 103.88ZM265.255 108.862C264.209 109.862 264.092 109.741 264.68 108.274C265.088 107.258 265.68 106.692 265.997 107.016C266.313 107.339 265.98 108.17 265.255 108.862ZM91.7396 108.123C90.5139 109.303 88.8757 110.351 88.0985 110.452C86.813 110.619 83.6941 112.383 71.3122 119.943C68.9941 121.359 67.0556 122.316 67.004 122.071C66.9524 121.824 66.1117 122.261 65.1374 123.04C64.162 123.818 63.1041 124.189 62.7864 123.865C62.4688 123.54 63.316 122.682 64.6674 121.956C68.3089 120.006 69.9371 119.067 79.3007 113.524C93.4489 105.147 95.9656 104.054 91.7396 108.123ZM257.092 114.214C257.434 115.141 257.252 115.554 256.667 115.182C256.105 114.826 255.651 114.095 255.659 113.559C255.682 112.069 256.425 112.409 257.092 114.214ZM186.721 116.196C185.993 117.04 184.929 117.723 184.355 117.714C183.772 117.705 183.896 117.02 184.634 116.164C185.362 115.321 186.427 114.638 187.001 114.646C187.583 114.655 187.459 115.34 186.721 116.196ZM565.986 124.672C565.24 125.83 562.382 125.837 562.4 124.681C562.422 123.223 563.607 122.57 565.129 123.176C565.925 123.493 566.312 124.166 565.986 124.672ZM182.843 120.326C182.489 121.2 181.98 121.69 181.71 121.414C181.441 121.139 181.538 120.42 181.926 119.819C182.98 118.181 183.576 118.512 182.843 120.326ZM1017.34 135.878C1014.89 139.728 1014.49 142.038 1016.77 139.138C1017.96 137.63 1018.33 137.526 1018.33 138.705C1018.32 140.757 1017.21 142.233 1014.65 143.627C1012.81 144.624 1012.77 144.778 1014.37 144.83C1016.77 144.908 1016.66 146.212 1014.05 148.482C1012.89 149.496 1011.93 150.952 1011.91 151.719C1011.89 153.342 1010.93 153.451 1008.81 152.072C1007.85 151.449 1006.8 151.484 1005.94 152.172C1003.69 153.965 1004.37 155.34 1007.17 154.686C1011.07 153.779 1010.55 157.064 1006.59 158.367C1004.22 159.146 1003.44 160.045 1003.41 162.002C1003.38 163.965 1002.96 164.438 1001.7 163.935C1000.53 163.47 1000.19 163.719 1000.57 164.757C1001.53 167.352 998.617 167.286 997.429 164.685C996.804 163.316 996.665 162.433 997.121 162.722C998.32 163.483 999.202 160.733 998.574 158.189C998.061 156.117 999.105 155.442 1001.93 156.02C1002.5 156.136 1002.41 155.651 1001.73 154.941C1000.76 153.931 1000.92 153.071 1002.46 150.992C1003.54 149.532 1004.56 147.872 1004.71 147.304C1005.43 144.722 1007.51 142.683 1009.43 142.698C1011 142.71 1011.18 142.483 1010.14 141.808C1008.13 140.504 1009.14 137.263 1011.97 135.915C1013.3 135.282 1014.37 134.353 1014.34 133.853C1014.31 133.354 1014.72 132.952 1015.24 132.96C1015.77 132.968 1016.55 132.643 1016.97 132.237C1018.94 130.337 1019.21 132.94 1017.34 135.878ZM561.312 127.6C561.303 128.17 560.798 128.628 560.191 128.619C559.583 128.61 559.383 128.14 559.746 127.576C560.11 127.012 560.614 126.553 560.867 126.557C561.121 126.561 561.32 127.03 561.312 127.6ZM825.318 131.913C824.425 132.594 823.851 133.969 824.043 134.969C824.298 136.302 823.744 136.756 821.967 136.668C820.633 136.604 820.135 136.323 820.856 136.047C821.578 135.77 822.178 134.907 822.19 134.128C822.202 133.35 823.041 132.25 824.054 131.685C826.576 130.278 827.292 130.407 825.318 131.913ZM561.604 132.3C561.063 133.641 559.119 134.467 559.136 133.35C559.16 131.811 560.602 129.764 561.335 130.23C561.819 130.537 561.941 131.469 561.604 132.3ZM60.2641 125.667C59.5362 126.511 58.4391 127.193 57.8254 127.184C57.2128 127.174 57.6323 126.496 58.7597 125.677C61.4071 123.751 61.9186 123.748 60.2641 125.667ZM930.342 139.632C929.997 140.452 929.753 140.203 929.721 138.996C929.693 137.903 929.949 137.296 930.29 137.645C930.631 137.994 930.655 138.889 930.342 139.632ZM817.912 140.833C817.904 141.402 817.377 141.861 816.741 141.851C816.106 141.841 815.846 142.537 816.163 143.396C816.807 145.14 816.634 145.226 814.31 144.301C813.067 143.805 812.943 143.198 813.779 141.702C814.917 139.667 817.94 139.031 817.912 140.833ZM554.861 139.934C554.852 140.504 554.14 140.96 553.279 140.946C552.418 140.933 551.721 140.456 551.73 139.887C551.738 139.317 552.45 138.862 553.311 138.875C554.172 138.888 554.869 139.365 554.861 139.934ZM810.955 145.284C810.635 146.076 810.881 147.048 811.504 147.442C812.125 147.837 812.513 147.598 812.366 146.912C812.218 146.227 812.688 145.461 813.409 145.211C815.251 144.572 815.006 147.519 813.09 149.048C812.218 149.744 811.509 150.024 811.515 149.668C811.534 148.403 807.472 152.951 807.098 154.616C806.887 155.549 806.252 156.164 805.684 155.983C805.117 155.802 804.797 154.957 804.973 154.105C805.234 152.846 805.11 152.816 804.313 153.95C803.774 154.717 803.528 156.13 803.765 157.09C804.199 158.848 800.664 163.251 797.422 164.987C796.457 165.504 795.496 166.94 795.286 168.178C795.076 169.416 793.743 171.296 792.323 172.357C787.97 175.605 785.404 173.043 788.792 168.832C789.677 167.733 792.441 164.265 794.934 161.125C797.427 157.986 800.041 155.617 800.743 155.861C801.48 156.117 802.032 155.392 802.051 154.146C802.075 152.604 802.754 151.994 804.433 152.009C806.331 152.024 806.485 151.832 805.231 151C804.197 150.315 804.116 149.974 804.985 149.976C805.704 149.979 806.298 149.452 806.308 148.807C806.323 147.803 810.247 143.824 811.209 143.839C811.389 143.842 811.276 144.492 810.955 145.284ZM1253.84 151.876C1253.68 152.596 1254.37 153.044 1255.39 152.89C1257.29 152.603 1257.44 153.093 1257.38 159.7C1257.33 164.607 1255.1 170.285 1253.23 170.256C1252.42 170.244 1252.04 170.88 1252.35 171.727C1253.12 173.825 1247.19 176.735 1245.55 175.06C1244.66 174.15 1244.36 174.246 1244.35 175.449C1244.33 176.42 1242.64 177.518 1240.03 178.252C1235.18 179.613 1234.06 179.224 1236.39 176.981C1237.27 176.14 1237.73 175.198 1237.43 174.887C1236.83 174.274 1240.81 170.11 1242.08 170.018C1242.51 169.988 1242.73 169.285 1242.58 168.458C1242.42 167.631 1243.02 166.688 1243.91 166.364C1244.81 166.039 1245.55 165.124 1245.56 164.33C1245.57 163.537 1246.02 162.894 1246.55 162.902C1247.09 162.91 1247.69 161.87 1247.89 160.592C1248.15 158.959 1248.94 158.299 1250.54 158.376C1252.27 158.46 1252.64 158.087 1252.07 156.846C1251.64 155.943 1251.4 154.623 1251.52 153.912C1251.64 153.202 1251.8 152.155 1251.88 151.587C1251.97 151.018 1252.5 150.56 1253.07 150.569C1253.65 150.578 1253.99 151.166 1253.84 151.876ZM555.335 143.05C555.681 143.625 555.467 144.088 554.859 144.079C554.252 144.069 553.761 143.596 553.77 143.026C553.778 142.456 553.992 141.993 554.246 141.997C554.499 142.001 554.989 142.475 555.335 143.05ZM42.064 136.894C41.7123 137.233 40.811 137.256 40.0631 136.945C39.2353 136.602 39.4864 136.361 40.703 136.329C41.8037 136.302 42.4157 136.556 42.064 136.894ZM550.607 145.05C550.599 145.62 550.122 146.079 549.548 146.07C548.974 146.061 548.511 145.588 548.52 145.018C548.529 144.448 549.005 143.99 549.579 143.998C550.153 144.007 550.616 144.48 550.607 145.05ZM546.123 152.027C545.812 156.116 545.197 156.716 543.499 154.587C542.667 153.543 542.235 153.213 542.542 153.854C543.242 155.317 539.348 158.846 538.531 157.488C538.014 156.628 540.109 153.396 543.738 149.457C545.328 147.733 546.365 148.85 546.123 152.027ZM510.504 151.886C510.158 152.707 509.915 152.458 509.883 151.25C509.855 150.158 510.11 149.55 510.452 149.899C510.793 150.249 510.817 151.143 510.504 151.886ZM999.897 157.977C999.487 158.613 999.634 159.142 1000.22 159.151C1000.81 159.16 1000.99 159.979 1000.63 160.97C1000.1 162.373 1000.25 162.512 1001.28 161.597C1002.19 160.788 1002.3 159.861 1001.62 158.621C1000.96 157.403 1000.4 157.193 999.897 157.977ZM894.558 158.772C894.213 159.592 893.969 159.343 893.937 158.136C893.909 157.043 894.165 156.436 894.506 156.785C894.847 157.134 894.871 158.029 894.558 158.772ZM1248.14 169.071C1247.8 169.597 1248 170.326 1248.58 170.693C1249.15 171.06 1249.64 170.633 1249.65 169.745C1249.68 167.925 1249.06 167.648 1248.14 169.071ZM537.56 160.392C537.456 161.53 536.96 162.455 536.456 162.448C535.236 162.429 531.566 166.718 531.499 168.243C531.47 168.907 532.029 169.728 532.741 170.065C533.454 170.403 532.919 170.383 531.554 170.019C529.329 169.426 529.121 169.64 529.553 172.079C529.968 174.423 529.816 174.616 528.459 173.473C527.087 172.316 526.975 172.537 527.597 175.186C528.246 177.947 528.153 178.092 526.583 176.757C525.071 175.474 524.599 175.592 522.825 177.7C521.703 179.033 521.044 180.928 521.35 181.94C521.787 183.377 521.34 183.727 519.263 183.576C515.896 183.332 515.908 181.503 519.29 179.376C520.739 178.465 521.937 177.148 521.95 176.449C521.965 175.75 524.361 172.687 527.273 169.643C530.187 166.6 532.573 163.938 532.577 163.73C532.582 163.38 537.104 158.52 537.552 158.383C537.66 158.351 537.664 159.254 537.56 160.392ZM502.007 160.323C501.995 161.153 501.589 161.581 501.106 161.274C500.623 160.967 500.504 160.287 500.843 159.762C501.707 158.42 502.034 158.577 502.007 160.323ZM996.272 172.59C996.949 172.618 996.644 173.12 995.593 173.705C994.544 174.29 993.277 175.772 992.78 176.997C991.909 179.146 991.835 179.119 990.742 176.216C990.118 174.561 989.923 172.927 990.311 172.583C990.698 172.241 991.215 172.547 991.46 173.263C992.276 175.643 994.06 174.656 993.468 172.152C993.149 170.807 993.237 169.365 993.663 168.949C994.09 168.532 994.575 169.169 994.74 170.365C994.905 171.561 995.594 172.563 996.272 172.59ZM733.516 167.452C733.129 168.054 732.311 168.539 731.702 168.529C731.009 168.519 731.097 167.926 731.935 166.954C733.393 165.264 734.666 165.665 733.516 167.452ZM494.064 169.831C493.737 171.394 493.278 172.071 493.043 171.336C492.619 170.011 493.46 166.973 494.247 166.985C494.472 166.988 494.39 168.269 494.064 169.831ZM723.842 176.077C721.585 178.01 719.581 179.431 719.389 179.234C719.197 179.037 720.861 177.269 723.089 175.306C725.315 173.341 727.319 171.92 727.542 172.147C727.764 172.375 726.099 174.144 723.842 176.077ZM988.148 178.159C987.206 179.066 986.439 179.404 986.447 178.907C986.465 177.734 988.834 175.454 989.415 176.049C989.662 176.301 989.092 177.25 988.148 178.159ZM139.464 164.581C139.774 165.096 139.345 165.765 138.512 166.067C137.501 166.435 137.198 166.122 137.6 165.126C138.3 163.396 138.684 163.284 139.464 164.581ZM133.705 170.174C133.702 170.388 132.867 171.192 131.851 171.959C130.176 173.221 130.14 173.184 131.462 171.561C132.853 169.856 133.718 169.321 133.705 170.174ZM482.433 184.506C481.987 186.1 481.617 186.303 481.007 185.288C480.364 184.22 481.473 182.483 482.87 182.368C482.96 182.361 482.763 183.323 482.433 184.506ZM123.085 182.053C123.077 182.623 122.572 183.081 121.964 183.072C121.357 183.063 121.156 182.594 121.52 182.029C121.883 181.465 122.387 181.006 122.641 181.01C122.894 181.014 123.094 181.483 123.085 182.053ZM509.787 192.159C507.279 194.729 506.971 195.51 508.158 196.281C510.559 197.841 511.958 197.452 514.313 194.571C518.618 189.306 514.64 187.186 509.787 192.159ZM975.691 199.763C975.678 200.584 975.228 201.248 974.689 201.24C974.15 201.232 973.793 200.326 973.893 199.227C974.098 196.972 975.726 197.456 975.691 199.763ZM308.795 189.026C308.787 189.596 308.282 190.054 307.674 190.045C307.067 190.036 306.866 189.566 307.23 189.002C307.593 188.438 308.097 187.979 308.351 187.983C308.604 187.987 308.804 188.456 308.795 189.026ZM118.841 186.59C118.837 186.841 118.36 187.327 117.78 187.671C117.201 188.014 116.734 187.801 116.744 187.198C116.753 186.595 117.23 186.108 117.804 186.117C118.378 186.126 118.844 186.338 118.841 186.59ZM646.175 198.907C645.472 200.646 643.727 199.792 643.758 197.725C643.771 196.882 644.41 196.516 645.271 196.859C646.091 197.185 646.498 198.108 646.175 198.907ZM116.272 190.398C116.698 191.104 116.547 191.319 115.909 190.914C115.311 190.534 113.339 191.847 111.529 193.831C107.457 198.295 107.168 197.362 111.179 192.708C114.403 188.968 115.196 188.609 116.272 190.398ZM830.575 200.538C830.572 200.79 830.094 201.276 829.515 201.619C828.936 201.963 828.469 201.749 828.478 201.147C828.487 200.544 828.965 200.057 829.539 200.065C830.113 200.074 830.579 200.286 830.575 200.538ZM641.639 199.794C641.626 200.648 640.925 201.337 640.082 201.324C639.149 201.31 638.794 200.697 639.174 199.756C639.518 198.907 640.218 198.218 640.731 198.226C641.243 198.234 641.652 198.939 641.639 199.794ZM502.738 200.009C502.699 200.437 501.167 201.928 499.334 203.325L495.998 205.864L498.555 202.536C500.951 199.418 502.897 198.243 502.738 200.009ZM639.835 205.983C639.491 206.832 638.791 207.521 638.278 207.513C637.766 207.505 637.357 206.8 637.37 205.945C637.383 205.091 638.083 204.402 638.927 204.415C639.86 204.429 640.215 205.041 639.835 205.983ZM105.051 200.946C104.324 201.789 103.259 202.472 102.685 202.464C102.102 202.455 102.227 201.77 102.964 200.914C103.692 200.07 104.757 199.387 105.331 199.396C105.913 199.405 105.789 200.09 105.051 200.946ZM102.489 204.792C102.891 205.511 102.832 205.738 102.36 205.299C101.886 204.858 100.277 205.533 98.7836 206.798C96.457 208.769 96.3345 208.794 97.9229 206.969C98.9429 205.799 99.4675 204.525 99.0902 204.138C98.712 203.751 99.1571 203.446 100.08 203.46C101.003 203.474 102.087 204.074 102.489 204.792ZM549.014 215.478C548.651 216.042 547.794 216.488 547.111 216.47C546.364 216.448 546.499 216.043 547.449 215.454C549.473 214.198 549.834 214.204 549.014 215.478ZM94.8351 211.151C94.4913 212 93.7334 212.688 93.151 212.679C92.5394 212.67 92.6507 212.014 93.4136 211.129C94.1415 210.285 94.8994 209.598 95.0977 209.601C95.296 209.604 95.1779 210.301 94.8351 211.151ZM90.2039 216.26C89.4526 217.132 88.6266 217.627 88.3676 217.362C87.8012 216.782 90.5871 213.717 91.1662 214.283C91.3873 214.5 90.9552 215.389 90.2039 216.26ZM483.923 222.257C483.626 223.677 482.747 224.829 481.967 224.818C481.187 224.806 479.859 226.067 479.014 227.622C478.169 229.176 476.302 231.504 474.866 232.795C472.658 234.779 472.162 234.892 471.657 233.523C471.24 232.397 471.684 231.913 473.113 231.935C474.447 231.955 475.179 231.265 475.198 229.97C475.215 228.871 476.481 227.026 478.011 225.869C479.542 224.711 480.423 223.758 479.97 223.751C479.516 223.744 480.01 222.819 481.066 221.696C483.642 218.956 484.572 219.139 483.923 222.257ZM747 224.315C747.349 224.674 746.9 225.675 746.001 226.54C744.626 227.864 744.227 227.884 743.494 226.666C742.327 224.727 745.393 222.671 747 224.315ZM662.032 231.704C660.207 233.501 658.424 234.675 658.068 234.311C657.714 233.948 658.999 232.265 660.925 230.572C665.474 226.572 666.342 227.46 662.032 231.704ZM741.881 231.873C742.238 232.465 741.816 232.633 740.893 232.265C739.096 231.549 738.776 230.801 740.277 230.824C740.818 230.832 741.539 231.304 741.881 231.873ZM735.057 234.889C735.048 235.458 734.544 235.917 733.936 235.908C733.329 235.898 733.128 235.429 733.492 234.865C733.855 234.301 734.359 233.842 734.613 233.846C734.866 233.85 735.066 234.319 735.057 234.889ZM628.587 234.303C628.579 234.873 628.102 235.332 627.528 235.323C626.954 235.314 626.491 234.841 626.5 234.271C626.509 233.702 626.985 233.243 627.559 233.251C628.133 233.26 628.596 233.733 628.587 234.303ZM737.732 237.757C736.656 238.794 735.804 237.195 736.696 235.811C737.369 234.764 737.616 234.768 737.952 235.826C738.184 236.549 738.084 237.418 737.732 237.757ZM654.11 237.8C652.434 239.484 650.617 240.855 650.073 240.847C649.139 240.833 655.728 234.768 656.7 234.748C656.951 234.742 655.786 236.116 654.11 237.8ZM735.267 240.288C734.662 241.014 733.85 242.583 733.464 243.771C733.078 244.961 730.623 248.177 728.008 250.919C725.393 253.66 723.246 256.496 723.235 257.22C723.224 257.945 722.745 258.531 722.171 258.522C721.597 258.513 721.117 259.205 721.104 260.06C721.091 260.914 720.61 261.606 720.036 261.598C719.462 261.589 718.984 262.177 718.973 262.905C718.949 264.434 714.839 268.091 712.835 268.365C710.827 268.64 708.355 270.85 708.95 271.838C709.622 272.954 702.119 279.974 700.285 279.946C698.577 279.92 698.488 278.668 700.087 277.129C700.737 276.503 701.816 275.076 702.484 273.958C705.518 268.882 711.996 260.439 712.848 260.452C713.366 260.46 713.798 259.951 713.807 259.321C713.817 258.691 715.029 256.728 716.499 254.958C720.275 250.417 720.337 250.339 725.344 243.806C729.732 238.083 731.866 236.594 731.891 239.244C731.897 239.957 732.42 239.686 733.052 238.644C733.857 237.316 734.526 237.08 735.285 237.856C736.033 238.622 736.028 239.374 735.267 240.288ZM624.645 241.352C624.201 242.939 619.013 246.075 619.033 244.744C619.038 244.405 620.113 242.628 621.419 240.796C623.739 237.544 625.619 237.868 624.645 241.352ZM644.723 245.452C643.78 246.36 643.014 246.698 643.021 246.2C643.039 245.028 645.408 242.747 645.99 243.343C646.236 243.595 645.667 244.544 644.723 245.452ZM466.067 243.313C465.723 243.847 465.008 244.01 464.479 243.674C463.949 243.338 463.508 243.635 463.497 244.333C463.486 245.031 463.181 245.298 462.817 244.927C461.889 243.977 464.621 241.027 465.76 241.749C466.273 242.075 466.411 242.778 466.067 243.313ZM616.839 248.783C616.299 250.555 615.603 252.248 615.293 252.545C614.243 253.555 613.492 251.832 614.39 250.474C615.344 249.028 615.511 248.476 615.753 245.961C615.838 245.075 616.339 244.622 616.865 244.956C617.444 245.323 617.433 246.84 616.839 248.783ZM764.538 250.304C760.518 253.889 759.817 253.567 763.527 249.838C765.197 248.16 766.765 246.992 767.009 247.243C767.255 247.495 766.143 248.871 764.538 250.304ZM756.653 256.346C756.65 256.57 755.914 257.02 755.018 257.346C754.083 257.685 753.668 257.505 754.042 256.924C754.669 255.948 756.666 255.507 756.653 256.346ZM895.07 262.386C894.725 263.207 894.481 262.957 894.45 261.75C894.421 260.657 894.677 260.05 895.018 260.399C895.359 260.748 895.383 261.643 895.07 262.386ZM749.457 261.528C747.73 262.926 746.007 264.065 745.627 264.059C744.636 264.044 750.697 259.029 751.734 259.005C752.209 258.994 751.184 260.129 749.457 261.528ZM462.243 258.128C462.239 258.38 461.762 258.866 461.183 259.209C460.604 259.553 460.137 259.339 460.146 258.736C460.155 258.134 460.632 257.647 461.207 257.655C461.781 257.664 462.247 257.876 462.243 258.128ZM485.646 258.947C485.952 259.456 485.533 260.409 484.714 261.064C483.495 262.035 483.332 261.865 483.817 260.131C484.472 257.788 484.815 257.566 485.646 258.947ZM257.627 258.76C257.618 259.363 257.145 259.562 256.577 259.201C255.989 258.828 255.471 259.801 255.377 261.453C255.272 263.316 255.047 263.685 254.751 262.48C254.498 261.446 254.561 259.931 254.891 259.115C255.584 257.4 257.652 257.132 257.627 258.76ZM253.426 259.412C253.375 260.83 251.419 263.217 250.816 262.599C250.006 261.77 251.364 258.604 252.521 258.621C253.034 258.629 253.441 258.984 253.426 259.412ZM712.589 270.809C712.58 271.378 711.84 271.833 710.946 271.82C710.052 271.806 709.616 271.333 709.98 270.769C710.343 270.205 711.082 269.75 711.623 269.758C712.163 269.766 712.598 270.239 712.589 270.809ZM441.791 271.584C440.715 272.621 439.863 271.022 440.755 269.638C441.428 268.591 441.675 268.595 442.011 269.653C442.243 270.376 442.143 271.245 441.791 271.584ZM899.35 277.28C899.323 279.117 896.64 279.32 895.583 277.564C895.088 276.741 895.412 276.566 896.573 277.029C897.523 277.407 898.307 277.265 898.315 276.714C898.324 276.161 898.565 275.713 898.852 275.718C899.139 275.722 899.363 276.425 899.35 277.28ZM700.476 277.877C700.113 278.441 700.314 278.91 700.921 278.92C701.528 278.929 702.033 278.47 702.042 277.901C702.051 277.331 701.851 276.862 701.597 276.858C701.344 276.854 700.84 277.312 700.476 277.877ZM1006.52 297.82C1006.5 298.248 1005.79 299.751 1004.94 301.163L1003.41 303.73L1003.42 301.054C1003.42 299.582 1003.74 298.071 1004.13 297.698C1005.08 296.781 1006.58 296.857 1006.52 297.82ZM1005.34 309.458C1005.33 310.027 1005.12 310.49 1004.86 310.487C1004.61 310.483 1004.12 310.009 1003.77 309.434C1003.43 308.859 1003.64 308.396 1004.25 308.405C1004.86 308.414 1005.35 308.888 1005.34 309.458ZM539.769 308.583C539.761 309.153 540.251 309.626 540.859 309.636C541.466 309.645 541.681 309.182 541.335 308.607C540.989 308.032 540.499 307.558 540.245 307.554C539.992 307.55 539.778 308.013 539.769 308.583ZM540.836 317.924C540.814 319.348 541.043 319.935 541.342 319.227C541.643 318.519 541.661 317.354 541.382 316.637C541.104 315.921 540.858 316.5 540.836 317.924ZM551.959 333.024C553.378 334.917 553.337 334.947 551.201 333.582C549.958 332.787 549.199 331.738 549.514 331.248C549.828 330.76 550.17 330.508 550.272 330.69C550.375 330.873 551.133 331.922 551.959 333.024ZM656.165 342.931C656.148 344.023 654.139 344.453 653.557 343.487C653.206 342.902 653.65 342.436 654.545 342.449C655.439 342.463 656.169 342.679 656.165 342.931ZM652.336 345.006C652.653 345.865 652.457 346.562 651.902 346.553C651.346 346.545 650.901 345.839 650.914 344.984C650.927 344.129 651.123 343.433 651.348 343.436C651.573 343.44 652.018 344.146 652.336 345.006ZM181.83 369.242C181.821 369.787 182.777 370.499 183.953 370.824C185.314 371.199 185.95 370.969 185.703 370.194C185.225 368.696 181.851 367.867 181.83 369.242Z" fill="url(#paint0_linear_28_649)"/>
<path d="M684.142 145.373C683.933 146.078 682.305 147.935 680.522 149.498C672.929 156.158 661.643 156.482 652.451 152.909C650.369 152.1 653.231 148.079 652.104 147.477L649.152 148.451C647.82 149.13 646.468 149.834 645.983 149.498C644.237 148.287 642.67 146.91 641.349 145.395C641.109 145.12 640.531 145.679 640.308 145.395L640.291 145.381C640.069 145.255 638.561 145.905 639.305 144.558C640.072 143.169 639.593 143.089 639.305 142.616C639.029 142.162 638.459 142.046 638.227 141.574C637.893 140.897 637.92 139.854 637.683 139.143C635.832 133.604 637.028 127.102 643.138 120.423C646.754 117.744 655.102 111.064 661.691 105.581C672.378 96.6885 685.914 86.3907 690.948 83.3256C691.946 82.7175 695.336 79.9533 698.481 77.1825C703.614 72.6589 704.58 72.1775 707.933 72.467C709.987 72.6446 712.215 73.3977 712.884 74.1413C713.613 74.9511 715.325 74.9753 717.152 74.2009C718.83 73.49 720.513 73.252 720.889 73.6708C721.267 74.0903 722.476 73.5034 723.578 72.3656C724.814 71.0892 725.832 70.7199 726.237 71.3992C726.642 72.0786 727.216 71.8704 727.735 70.8571C728.303 69.7503 728.66 69.6754 728.829 70.6284C728.976 71.4596 729.853 71.7337 730.953 71.294C732.587 70.6399 737.881 70.6989 738.492 71.3778C738.612 71.511 737.93 71.9229 736.978 72.2924C735.812 72.7437 735.693 73.093 736.616 73.359C737.37 73.5765 739.15 72.7055 740.573 71.4233C742.208 69.9489 743.731 69.3823 744.715 69.8811C746.505 70.7869 747.728 74.7327 746.549 75.7954C746.113 76.189 745.683 76.1048 745.596 75.6087C745.509 75.1118 743.905 76.2742 742.032 78.1901C740.158 80.106 737.503 82.6403 736.13 83.8233C733.588 86.0126 732.401 91.0428 734.512 90.6819C735.948 90.4366 737.793 94.8408 736.677 95.8475C735.372 97.0234 735.293 97.1337 732.512 101.7C730.888 104.363 729.265 106.107 728.37 106.147C727.537 106.184 725.923 107.589 724.646 109.388C723.196 111.431 721.827 112.536 720.81 112.487C719.681 112.433 719.512 112.733 720.221 113.538C721.027 114.453 720.915 114.582 719.632 114.229C718.413 113.892 717.564 114.553 715.925 117.11C714.668 119.071 713.539 120.137 713.162 119.718C712.812 119.33 712.002 119.483 711.362 120.06C710.722 120.637 710.548 121.497 710.976 121.972C711.534 122.593 711.26 122.859 710.003 122.914C709.041 122.958 707.562 123.597 706.718 124.337C688.406 140.386 685.83 142.896 686.087 144.443C686.304 145.752 686.175 145.881 685.44 145.085C684.935 144.537 684.351 144.666 684.142 145.373Z" fill="#C32BB8"/>
<defs>
<linearGradient id="paint0_linear_28_649" x1="185.314" y1="68.2151" x2="1437.43" y2="355.407" gradientUnits="userSpaceOnUse">
<stop stop-color="#FF228C"/>
<stop offset="1" stop-color="#552BFF"/>
</linearGradient>
</defs>
</svg>
